<?xml version="1.0" encoding="UTF-8" standalone="no"?>
<!-- Created with Inkscape (http://www.inkscape.org/) -->

<svg
   xmlns:dc="http://purl.org/dc/elements/1.1/"
   xmlns:cc="http://creativecommons.org/ns#"
   xmlns:rdf="http://www.w3.org/1999/02/22-rdf-syntax-ns#"
   xmlns:svg="http://www.w3.org/2000/svg"
   xmlns="http://www.w3.org/2000/svg"
   xmlns:sodipodi="http://sodipodi.sourceforge.net/DTD/sodipodi-0.dtd"
   xmlns:inkscape="http://www.inkscape.org/namespaces/inkscape"
   width="50.848331mm"
   height="61.689999mm"
   viewBox="0 0 50.848331 61.689999"
   version="1.1"
   id="svg8"
   inkscape:version="0.92.3 (2405546, 2018-03-11)"
   sodipodi:docname="dibujo-6.svg">
  <defs
     id="defs2" />
  <sodipodi:namedview
     id="base"
     pagecolor="#ffffff"
     bordercolor="#666666"
     borderopacity="1.0"
     inkscape:pageopacity="0.0"
     inkscape:pageshadow="2"
     inkscape:zoom="0.7"
     inkscape:cx="124.69599"
     inkscape:cy="332.0799"
     inkscape:document-units="mm"
     inkscape:current-layer="layer1"
     showgrid="false"
     fit-margin-top="0"
     fit-margin-left="0"
     fit-margin-right="0"
     fit-margin-bottom="0"
     inkscape:window-width="1280"
     inkscape:window-height="663"
     inkscape:window-x="0"
     inkscape:window-y="0"
     inkscape:window-maximized="1" />
  <metadata
     id="metadata5">
    <rdf:RDF>
      <cc:Work
         rdf:about="">
        <dc:format>image/svg+xml</dc:format>
        <dc:type
           rdf:resource="http://purl.org/dc/dcmitype/StillImage" />
        <dc:title></dc:title>
      </cc:Work>
    </rdf:RDF>
  </metadata>
  <g
     inkscape:label="Capa 1"
     inkscape:groupmode="layer"
     id="layer1"
     transform="translate(-19.829636,-135.57144)">
    <path
       style="fill:#000000;stroke-width:0.99999994"
       d="m -23.628906,381.67392 -1.267578,0.0898 0.107422,2.37305 c 0.381282,-0.81933 0.924799,-1.99049 1.160156,-2.46289 z"
       transform="scale(0.26458333)"
       id="path1124"
       inkscape:connector-curvature="0" />
    <path
       style="fill:#000000;stroke-width:0.99999994"
       d="m -6.1523438,551.48438 c -0.0018,0.10091 -0.00611,0.20182 -0.00781,0.30273 0.018142,0.0227 0.036621,0.0481 0.054687,0.0723 0.4327862,0.43831 0.3742532,0.61122 1.0546876,0.94726 0.1559055,0.0771 -0.5049897,-0.42018 -0.3320313,-0.40234 0.5048277,0.0521 0.9465189,0.37306 1.4335937,0.51562 0.01731,0.004 0.035379,0.008 0.052734,0.0117 -0.2410545,-0.14589 -0.5542855,-0.32163 -0.7441406,-0.44726 z"
       transform="scale(0.26458333)"
       id="path1096"
       inkscape:connector-curvature="0" />
    <path
       style="fill:#000000;stroke-width:0.99999994"
       d="m 17.941406,561.62695 v 0.002 c 0.09006,0.19237 0.169059,0.34281 0.240235,0.46289 v -0.44141 c -0.08018,-0.008 -0.160188,-0.0159 -0.240235,-0.0234 z"
       transform="scale(0.26458333)"
       id="path1010"
       inkscape:connector-curvature="0" />
    <g
       id="g1416"
       transform="translate(79.752976,11.339286)">
      <path
         id="path1104"
         transform="scale(0.26458333)"
         d="m -34.345703,484.89267 c -0.0678,0.37304 -0.05031,0.75292 -0.01953,1.13476 0.0042,-0.20182 0.0017,-0.40443 0.01953,-0.60546 2e-6,-0.17651 0,-0.35299 0,-0.5293 z"
         style="fill:#000000;stroke-width:0.99999994"
         inkscape:connector-curvature="0" />
      <path
         id="path1102"
         transform="scale(0.26458333)"
         d="m -34.330073,487.74618 c -0.0085,0.0601 -0.0031,0.12193 -0.01563,0.18164 1.93e-4,0.61142 -5.45e-4,1.22261 0,1.83399 0.0712,-0.66815 0.0473,-1.342 0.01563,-2.01563 z"
         style="fill:#000000;stroke-width:0.99999994"
         inkscape:connector-curvature="0" />
      <path
         id="path993"
         d="m -36.969202,183.78566 c -1.405977,-2.11755 -2.931052,-3.09767 -7.046997,-4.52887 -5.257944,-1.8283 -7.446958,-3.01877 -9.682661,-5.26582 -3.377605,-3.39475 -5.349446,-8.70261 -5.470895,-14.72673 l -0.05999,-2.97544 1.393621,-0.31378 c 1.653521,-0.37229 2.625668,-0.95809 3.017632,-1.81835 0.638353,-1.40103 -0.369539,-2.67587 -2.332747,-2.95058 -0.561095,-0.0785 -1.16081,-0.18526 -1.3327,-0.23721 -0.206633,-0.0624 0.04378,-0.90188 0.739051,-2.47744 0.578367,-1.31065 1.357773,-3.72854 1.732011,-5.3731 0.718357,-3.15675 0.709476,-2.74553 0.270292,-12.51511 l -0.04758,-1.05833 1.997168,-0.14203 c 2.434849,-0.17315 3.807636,-0.89458 5.753334,-3.02348 1.526555,-1.6703 1.661297,-1.6974 4.552623,-0.91584 5.319996,1.43805 9.388512,1.46407 14.893415,0.0952 1.424657,-0.35425 2.832412,-0.6441 3.12834,-0.6441 0.315011,0 1.092973,0.60718 1.876701,1.4647 1.945698,2.1289 3.318486,2.85033 5.753335,3.02348 l 1.997168,0.14203 -0.132292,2.38125 c -0.444167,7.99502 0.02019,11.67781 2.074566,16.45363 0.575083,1.33689 0.978567,2.49775 0.896631,2.57969 -0.08194,0.0819 -0.490144,0.14897 -0.907127,0.14897 -1.06245,0 -2.497148,0.649 -2.836524,1.28313 -0.803309,1.501 0.171747,2.78633 2.628371,3.46477 l 1.715958,0.47388 -0.05558,3.01151 c -0.110127,5.96771 -2.07551,11.23188 -5.465625,14.6394 -2.246251,2.25778 -4.427003,3.44479 -9.692341,5.27566 -4.115945,1.4312 -5.64102,2.41132 -7.046997,4.52887 -0.530982,0.79972 -1.050771,1.45403 -1.155086,1.45403 -0.104315,0 -0.624104,-0.65431 -1.155086,-1.45403 z"
         style="fill:#000000;fill-opacity:1;stroke:#ffcc00;stroke-width:1.36500001;stroke-miterlimit:4;stroke-dasharray:none;stroke-opacity:1"
         inkscape:connector-curvature="0" />
      <path
         id="path991"
         d="m -32.916299,179.94803 c 0.184505,0 0.277183,-1.88243 0.277183,-5.62993 v -5.62993 l -3.042671,0.008 -3.042672,0.008 -3.7e-5,5.38922 -3.7e-5,5.38923 1.521355,1.48994 1.521354,1.48995 1.244171,-1.25677 c 0.684295,-0.69123 1.368904,-1.25677 1.521354,-1.25677 z"
         style="fill:#ffcc00;fill-opacity:1;stroke-width:0.26458332"
         inkscape:connector-curvature="0" />
      <path
         id="path989"
         d="m -45.339116,170.99268 c 0,-5.76846 -0.02548,-6.07402 -0.55715,-6.68073 -4.054489,-4.62682 -4.656686,-10.83293 -1.573966,-16.22096 0.427933,-0.74795 1.082498,-1.64591 1.454588,-1.99547 l 0.676528,-0.63557 v -9.47888 c 0,-5.39077 -0.101974,-9.47888 -0.236443,-9.47888 -0.130044,0 -0.939006,0.68461 -1.797694,1.52136 -0.858689,0.83674 -2.121508,1.79759 -2.806266,2.13523 l -1.245014,0.61387 v 21.64211 21.64212 l 0.993648,0.65756 c 0.950853,0.62924 4.479094,2.29858 4.893331,2.31521 0.109141,0.004 0.198438,-2.71226 0.198438,-6.03697 z"
         style="fill:#ffcc00;fill-opacity:1;stroke-width:0.26458332"
         inkscape:connector-curvature="0" />
      <path
         id="path987"
         d="m -23.739149,176.16116 c 1.03868,-0.47668 2.31779,-1.1591 2.842464,-1.51648 l 0.953952,-0.64978 0.0019,-21.59814 0.0018,-21.59814 -1.426467,-0.72173 c -0.784555,-0.39695 -2.060411,-1.36364 -2.835232,-2.14821 -0.774822,-0.78457 -1.561661,-1.42649 -1.748534,-1.42649 -0.270272,0 -0.339767,1.92642 -0.339767,9.41826 v 9.41825 l 1.045956,1.18827 c 1.32333,1.50338 1.983589,2.86977 2.654723,5.49388 0.63199,2.47105 0.652442,3.3735 0.132131,5.82985 -0.468953,2.2139 -1.389288,4.17381 -2.79504,5.95222 l -1.03777,1.31287 v 5.96091 c 0,4.59494 0.07579,5.95979 0.330729,5.95603 0.181901,-0.003 1.180558,-0.39489 2.219238,-0.87157 z"
         style="fill:#ffcc00;fill-opacity:1;stroke-width:0.26458332"
         inkscape:connector-curvature="0" />
      <path
         id="path1006"
         d="m -40.723129,162.67617 c -0.07145,-0.18619 -0.09748,-2.65674 -0.05784,-5.49011 0.06926,-4.95117 0.09265,-5.15158 0.601229,-5.15158 0.508479,0 0.531979,0.20038 0.601139,5.12525 0.04994,3.55658 -0.02072,5.23692 -0.230836,5.49011 -0.378923,0.45657 -0.744548,0.46711 -0.913691,0.0263 z"
         style="fill:#000000;stroke-width:0.26458332"
         inkscape:connector-curvature="0" />
      <path
         id="path1004"
         d="m -29.78559,155.8048 c -0.0698,-2.51046 -0.114723,-2.71198 -0.604568,-2.71198 -0.483859,0 -0.535768,0.20209 -0.606271,2.36031 -0.08899,2.72421 -0.0071,3.06365 0.739515,3.06365 0.521926,0 0.543307,-0.12303 0.471324,-2.71198 z"
         style="fill:#000000;stroke-width:0.26458332"
         inkscape:connector-curvature="0" />
      <path
         id="path1000"
         d="m -44.016199,156.66469 v -3.70416 h -0.82531 -0.825309 l 0.107573,2.44739 c 0.08154,1.85517 0.254952,2.75152 0.71662,3.70417 0.334976,0.69122 0.657958,1.25677 0.717736,1.25677 0.05978,0 0.10869,-1.66688 0.10869,-3.70417 z"
         style="fill:#000000;stroke-width:0.26458332"
         inkscape:connector-curvature="0" />
      <path
         id="path969"
         d="m -32.638981,134.91614 -1.35e-4,-6.79959 -3.042708,0.004 -3.042709,0.004 2.65e-4,6.79594 2.65e-4,6.79593 h 3.042573 3.042571 l -1.38e-4,-6.7996 z"
         style="fill:#ffcc00;fill-opacity:1;stroke-width:0.26458332"
         inkscape:connector-curvature="0" />
      <path
         inkscape:connector-curvature="0"
         d="m -45.792881,150.29868 c 0,-0.62394 2.291353,-3.66923 3.45174,-4.58748 2.815659,-2.22811 8.71496,-2.50323 11.873974,-0.55376 1.350642,0.8335 2.930536,2.31092 2.930536,2.74046 0,0.57764 -0.643015,0.42835 -1.337075,-0.31044 -1.044945,-1.1123 -3.276206,-2.23125 -5.284065,-2.6499 -3.153807,-0.65759 -6.095513,0.13242 -8.28348,2.22455 -0.557697,0.53327 -1.185001,1.2954 -1.394009,1.69361 l -0.380015,0.72403 8.802342,0.0697 c 7.616931,0.0603 8.802343,0.12317 8.802343,0.4666 0,0.3442 -1.272937,0.40609 -9.591145,0.46632 -7.855982,0.0569 -9.591146,0.006 -9.591146,-0.28371 z m 19.320012,7.79696 c 0.386104,-1.27117 0.526246,-2.35446 0.470636,-3.63802 -0.07689,-1.77482 -0.100293,-1.83027 -0.806794,-1.91156 l -0.727604,-0.0837 v 3.72174 c 0,2.23124 0.102912,3.72174 0.256968,3.72174 0.141333,0 0.504389,-0.81458 0.806794,-1.81018 z m -1.857512,-1.24573 v -5.43716 l 1.50563,0.0794 c 1.475417,0.0777 1.510522,0.0979 1.74934,1.00539 0.433276,1.64634 0.0264,4.80412 -0.875234,6.79262 -0.781433,1.72341 -1.69986,2.99696 -2.161273,2.99696 -0.120155,0 -0.218463,-2.44672 -0.218463,-5.43716 z m -12.523611,5.26077 c -0.263588,-0.26359 -0.205068,-9.952 0.06266,-10.3747 0.639165,-1.00911 0.81928,0.15058 0.81928,5.27504 0,4.22032 -0.07059,5.27605 -0.352777,5.27605 -0.194029,0 -0.432154,-0.0794 -0.529167,-0.17639 z m -3.351389,-5.77673 v -3.83646 h -0.781761 c -0.688235,0 -0.803159,0.11406 -0.960621,0.9534 -0.229235,1.22193 0.221845,3.94749 0.911242,5.50598 0.29524,0.66744 0.603027,1.21353 0.68397,1.21353 0.08094,0 0.14717,-1.7264 0.14717,-3.83645 z m -0.515276,4.96093 c -1.297007,-1.57245 -1.949864,-3.56398 -2.072297,-6.32149 -0.141492,-3.18678 0.046,-3.53424 1.907116,-3.53424 1.048583,0 1.459397,0.10895 1.578191,0.41852 0.208081,0.54225 0.202746,9.05454 -0.0062,9.83409 -0.219693,0.81978 -0.458995,0.75227 -1.406846,-0.39688 z m 14.935067,-5.88698 v -2.77812 l -0.727604,-0.0837 -0.727604,-0.0837 v 2.7516 c 0,1.51338 0.0844,2.836 0.18755,2.93915 0.103153,0.10315 0.430575,0.15276 0.727604,0.11024 0.504486,-0.0722 0.540054,-0.26027 0.540054,-2.85543 z m -2.337152,9.08404 c -0.336269,-0.33628 -0.202694,-12.39148 0.141111,-12.73529 0.411641,-0.41164 2.657525,-0.41164 3.069166,0 0.213781,0.21378 0.3175,1.42081 0.3175,3.69486 0,3.74025 -0.08642,3.92514 -1.834689,3.92514 h -0.811144 v 2.64584 c 0,2.02847 -0.08232,2.64583 -0.352777,2.64583 -0.194029,0 -0.432154,-0.0794 -0.529167,-0.17639 z m -9.091702,-0.0766 c -1.641018,-1.0006 -1.686503,-1.20763 -1.607359,-7.31577 0.06097,-4.70571 0.130676,-5.52817 0.468505,-5.52817 0.337849,0 0.407532,0.82331 0.468528,5.53577 0.07748,5.98601 0.09448,6.05781 1.581993,6.67959 0.911259,0.38092 1.176695,1.14677 0.396875,1.1451 -0.254662,-5.3e-4 -0.843505,-0.23298 -1.308542,-0.51653 z m 5.128392,1.11284 c -0.06269,-0.10914 -0.450609,-1.76839 -0.862044,-3.68722 -0.411432,-1.91884 -0.843418,-3.42986 -0.959964,-3.35783 -0.116549,0.072 -0.211905,1.61221 -0.211905,3.42263 0,2.74955 -0.06536,3.29168 -0.396875,3.29168 -0.218281,0 -0.402653,-0.14883 -0.409718,-0.33073 -0.07093,-1.82675 0.06794,-13.30631 0.162103,-13.40048 0.355084,-0.35508 0.766865,0.79698 1.46935,4.11089 0.427556,2.01695 0.934336,4.38157 1.126178,5.25469 l 0.348805,1.5875 0.421587,-1.45521 c 0.231873,-0.80036 0.614072,-2.46724 0.849334,-3.70416 0.802434,-4.21897 1.249455,-5.82084 1.624386,-5.82084 0.295994,0 0.3611,1.26415 0.3611,7.01146 0,6.05602 -0.05408,7.01146 -0.396875,7.01146 -0.332425,0 -0.396875,-0.55856 -0.396875,-3.43958 0,-2.11667 -0.101764,-3.43959 -0.264583,-3.43959 -0.145521,0 -0.264583,0.0464 -0.264583,0.10317 0,0.27187 -1.075786,5.17561 -1.326902,6.0484 -0.268261,0.93237 -0.612838,1.24583 -0.872519,0.79375 z m 4.915681,-0.003 c 4.576029,-2.11577 7.303172,-6.61061 7.006767,-11.54848 -0.160673,-2.67669 -0.916644,-4.65582 -2.555335,-6.6899 -2.348474,-2.91513 -5.489014,-4.40799 -9.284359,-4.41335 -2.545752,-0.004 -4.55204,0.60512 -6.65062,2.01783 -4.147064,2.79169 -6.170206,8.18244 -4.825208,12.85698 0.630161,2.19012 1.314888,3.39909 2.836234,5.00769 1.495994,1.58179 2.842421,2.46122 4.978382,3.25169 1.141003,0.42226 1.920436,0.50561 4.058087,0.43395 2.297996,-0.077 2.881186,-0.19751 4.436052,-0.91641 z"
         style="fill:#ffcc00;fill-opacity:1;stroke-width:0.26458332"
         id="path1374" />
    </g>
  </g>
</svg>
