<?xml version="1.0" encoding="utf-8"?>
<!-- Generator: Adobe Illustrator 16.0.0, SVG Export Plug-In . SVG Version: 6.00 Build 0)  -->
<!DOCTYPE svg PUBLIC "-//W3C//DTD SVG 1.1//EN" "http://www.w3.org/Graphics/SVG/1.1/DTD/svg11.dtd">
<svg version="1.1" id="Capa_1" xmlns="http://www.w3.org/2000/svg" xmlns:xlink="http://www.w3.org/1999/xlink" x="0px" y="0px"
	 width="726px" height="724px" viewBox="0 0 726 724" enable-background="new 0 0 726 724" xml:space="preserve">
<g>
	<g>
		<path fill-rule="evenodd" clip-rule="evenodd" fill="#CECFD5" d="M8.218,348.401v27.877c0.896,1.933,1.291,16.104,1.578,19.609
			c3.62,40.976,15.163,80.231,31.938,116.911c15.306,33.495,29.034,51.603,49.789,77.548c1.433,1.79,3.333,4.152,4.839,5.726
			c4.624,4.76,10.61,11.775,15.485,16.604C219.74,719.818,343.513,714.345,348.603,716.634h29.105c0,0,34.592-3.363,38.678-3.971
			c12.007-1.755,24.054-4.188,35.487-7.158c55.451-14.42,97.928-37.933,140.549-72.715c1.829-1.504,4.086-3.364,5.628-4.904
			c1.971-1.968,3.62-2.935,5.555-4.974c3.441-3.687,7.419-6.801,11.076-10.484c19.858-19.862,41.76-48.132,55.524-72.396
			c22.905-40.401,37.206-79.156,44.09-126.358c0.896-6.298,1.685-12.489,2.223-18.787c0.323-3.794,0.61-17.964,1.54-20.147v-24.478
			c-0.752-1.61-1.217-16.712-1.505-20.04c-1.54-17.678-5.019-37.969-9.354-54.823c-16.775-65.31-49.502-119.989-93.413-163.827
			l-10.97-10.557c-3.87-3.22-7.635-6.548-11.542-10.056c-1.899-1.682-4.015-3.149-6.129-4.938
			C533.133,42.9,461.694,14.986,393.804,9.404c-3.442-0.286-17.708-0.572-19.643-1.431H352.08
			c-1.578,0.716-16.919,1.181-20.073,1.468c-18.46,1.574-37.351,4.723-55.094,9.16c-50.756,12.74-102.911,38.756-141.66,72.108
			c-19.75,16.962-22.188,20.184-38.139,37.074c-6.523,6.871-17.6,21.614-23.514,29.666c-24.16,32.923-43.552,75.507-54.27,116.697
			c-4.409,17.034-7.886,36.717-9.5,54.573C9.473,332.548,9.222,346.075,8.218,348.401z"/>
		<path fill-rule="evenodd" clip-rule="evenodd" fill="#3E368C" d="M349.463,34.239C171.887,41.825,27.18,189.907,34.457,376.314
			c6.882,176.386,156.894,322.033,342.75,314.16c69.146-2.935,130.01-26.374,181.913-64.378
			c7.958-5.833,15.846-12.024,22.655-18.465l5.197-4.796c5.483-5.438,15.449-14.278,20.504-20.647l4.658-5.369
			c22.835-27.055,41.258-54.75,55.022-88.926c43.982-109.218,29.106-227.811-39.822-321.176c-3.012-4.08-5.915-7.837-8.997-11.559
			l-19.429-21.722c-3.405-3.579-7.204-6.656-10.395-10.162c-3.479-3.83-6.954-6.156-10.504-9.556
			c-1.54-1.503-3.691-3.149-5.483-4.58c-2.078-1.646-3.907-3.221-5.807-4.724C506.32,56.855,429.757,30.804,349.463,34.239z"/>
		<path fill-rule="evenodd" clip-rule="evenodd" fill="#FFFFFF" d="M352.008,127.962c-126.21,6.012-229.91,112.295-223.673,245.812
			c5.879,125.714,112.877,229.278,246.329,222.98c125.386-5.941,229.91-112.654,223.242-245.597
			c-2.543-50.494-22.044-101.202-53.086-137.667c-2.367-2.828-4.338-5.404-6.739-7.766c-5.376-5.224-6.595-8.016-14.624-14.994
			c-23.266-20.254-41.294-33.281-71.656-45.771C422.407,132.899,387.388,126.28,352.008,127.962L352.008,127.962z M347.169,138.59
			c34.23-2.504,68.068,3.185,97.033,14.493c13.835,5.404,25.845,11.489,37.528,18.68c6.669,4.08,18.713,12.562,24.519,17.607
			c2.58,2.255,4.911,3.972,7.457,6.548c5.341,5.44,7.669,6.228,14.193,13.921c2.188,2.577,4.337,4.653,6.668,7.372
			c10.323,12.095,20.181,27.018,28.173,42.048c13.192,24.834,22.333,55.36,24.556,87.604
			c8.962,128.683-89.972,231.031-208.116,239.298c-129.258,9.053-231.955-89.502-240.234-207.914
			c-3.298-47.059,8.746-96.014,33.121-134.053c7.528-11.773,15.414-22.975,24.16-31.993c2.438-2.504,3.943-5.01,6.774-7.264
			c1.828-1.466,1.828-1.896,3.405-3.615c2.868-3.042,15.629-13.634,18.926-16.21C259.743,158.522,300.428,142.061,347.169,138.59
			L347.169,138.59z"/>
		<polygon fill-rule="evenodd" clip-rule="evenodd" fill="#FFFFFF" points="363.121,146.212 411.762,296.656 570.09,296.333 
			441.8,389.017 491.051,539.281 363.121,446.095 235.189,539.281 284.404,389.017 156.115,296.333 314.479,296.656 		"/>
		<path fill-rule="evenodd" clip-rule="evenodd" fill="#FFFFFF" d="M117.043,292.11L65.785,272.5l8.388-21.757
			c2.079-5.475,4.085-9.268,5.95-11.379c1.863-2.148,4.265-3.508,7.205-4.079c2.939-0.573,5.878-0.287,8.925,0.857
			c3.835,1.468,6.595,3.83,8.245,7.05c1.613,3.185,1.899,7.193,0.824,11.917c2.151-1.717,4.301-3.042,6.416-3.865
			c2.151-0.858,5.664-1.753,10.575-2.683l12.402-2.435l-4.732,12.347l-14.051,3.185c-4.982,1.146-8.172,2.005-9.606,2.578
			c-1.399,0.572-2.509,1.323-3.333,2.29c-0.789,0.93-1.649,2.577-2.582,4.974l-0.788,2.076l21.399,8.195L117.043,292.11
			L117.043,292.11z M91.45,270.46L91.45,270.46l2.939-7.659c1.9-4.938,2.868-8.123,2.939-9.519c0.036-1.396-0.287-2.612-1.075-3.722
			c-0.752-1.074-1.9-1.933-3.441-2.541c-1.72-0.644-3.262-0.715-4.695-0.214c-1.398,0.537-2.581,1.574-3.513,3.149
			c-0.431,0.787-1.434,3.256-3.047,7.479l-3.119,8.017L91.45,270.46L91.45,270.46z M169.198,195.668l-57.567-13.455l-6.739,9.589
			l32.727,48.883l6.739-9.589l-7.635-10.843l12.582-17.964l12.976,3.22L169.198,195.668L169.198,195.668L169.198,195.668z
			 M139.697,199.926l-8.603,12.239l-12.402-17.713L139.697,199.926L139.697,199.926L139.697,199.926z M189.917,148.324
			L189.917,148.324l10.323-4.474c2.689,5.583,3.549,10.735,2.581,15.459c-1.004,4.688-3.692,8.946-8.137,12.812
			c-5.52,4.794-11.685,6.834-18.46,6.154c-6.811-0.679-13.047-4.294-18.711-10.771c-6.021-6.907-8.889-13.777-8.638-20.684
			c0.25-6.907,3.262-12.847,9.068-17.893c5.054-4.401,10.502-6.477,16.274-6.227c3.405,0.108,7.025,1.431,10.861,3.937l-6.56,9.162
			c-2.366-1.719-4.875-2.541-7.492-2.433c-2.652,0.106-5.09,1.144-7.276,3.077c-3.083,2.648-4.625,5.905-4.625,9.77
			c0,3.864,2.151,8.267,6.452,13.169c4.553,5.225,8.747,8.159,12.546,8.731c3.835,0.573,7.241-0.429,10.252-3.042
			c2.222-1.933,3.513-4.295,3.872-7.085C192.641,155.159,191.852,151.974,189.917,148.324L189.917,148.324z M223.934,149.075
			l9.32-6.047l-29.895-45.949l-9.319,6.012L223.934,149.075L223.934,149.075L223.934,149.075z M247.09,133.794L247.09,133.794
			l-19.644-51.137l10.073-3.864l34.089,26.123l-13.12-34.175l9.607-3.686l19.679,51.173l-10.396,3.973L243.9,96.757l12.832,33.352
			L247.09,133.794L247.09,133.794z M326.881,90.136L326.881,90.136l-1.291-9.161l23.657-3.328l3.047,21.614
			c-2.007,2.576-5.054,4.974-9.176,7.301c-4.123,2.29-8.424,3.758-12.904,4.366c-5.664,0.823-10.79,0.322-15.378-1.467
			c-4.552-1.789-8.208-4.76-10.969-8.875c-2.724-4.151-4.48-8.803-5.197-13.993c-0.825-5.653-0.323-10.843,1.434-15.602
			c1.756-4.688,4.732-8.553,8.997-11.56c3.226-2.29,7.42-3.793,12.618-4.509c6.739-0.966,12.223-0.287,16.417,2.005
			c4.194,2.29,7.169,5.869,8.961,10.7l-10.609,3.578c-1.147-2.577-2.868-4.473-5.198-5.726c-2.33-1.252-5.09-1.646-8.245-1.181
			c-4.803,0.645-8.387,2.721-10.79,6.12c-2.401,3.472-3.19,8.16-2.365,14.136c0.931,6.442,3.046,11.058,6.344,13.885
			c3.333,2.827,7.312,3.901,11.972,3.257c2.294-0.323,4.517-1.11,6.703-2.326c2.187-1.217,4.015-2.612,5.484-4.115l-0.968-6.872
			L326.881,90.136L326.881,90.136z M430.581,115.365L430.581,115.365l-11.901-1.896l-2.796-13.062l-21.649-3.4l-6.416,11.56
			l-11.615-1.825l29.681-50.78l11.576,1.825L430.581,115.365L430.581,115.365z M413.84,90.745L413.84,90.745l-4.301-21.257
			l-10.502,18.93L413.84,90.745L413.84,90.745z M441.585,119.946L441.585,119.946l3.226-10.021l10.001,3.257l-3.225,9.984
			L441.585,119.946L441.585,119.946z M521.843,137.23L521.843,137.23l7.313,8.553c-4.588,4.187-9.249,6.512-14.052,6.942
			c-4.769,0.43-9.679-0.895-14.66-4.008c-6.201-3.864-9.929-9.125-11.293-15.817c-1.324-6.727,0.289-13.705,4.84-21.041
			c4.84-7.729,10.611-12.489,17.314-14.279c6.665-1.753,13.263-0.608,19.787,3.436c5.698,3.543,9.248,8.124,10.717,13.706
			c0.859,3.293,0.681,7.157-0.61,11.523l-10.683-3.578c0.97-2.756,1.004-5.369,0.145-7.874c-0.896-2.469-2.58-4.509-5.055-6.047
			c-3.477-2.147-7.025-2.684-10.754-1.539c-3.691,1.146-7.238,4.474-10.717,10.021c-3.691,5.868-5.234,10.7-4.695,14.529
			c0.572,3.793,2.546,6.763,5.914,8.875c2.51,1.574,5.163,2.111,7.958,1.646C516.071,141.811,518.939,140.128,521.843,137.23
			L521.843,137.23z M531.664,169.902l26.85,27.734l6.628-6.406l-19.104-19.789l32.475-31.313l-7.669-7.979L531.664,169.902
			L531.664,169.902L531.664,169.902z M612.458,177.131L612.458,177.131l6.167,9.161l-24.627,16.569
			c-3.906,2.647-6.379,4.473-7.383,5.475c-1.613,1.646-2.475,3.579-2.582,5.833c-0.143,2.218,0.683,4.615,2.401,7.192
			c1.757,2.613,3.62,4.223,5.557,4.795c1.971,0.608,3.836,0.538,5.557-0.251c1.721-0.751,4.409-2.361,7.992-4.794l25.162-16.962
			l6.204,9.161l-23.909,16.104c-5.449,3.686-9.464,6.047-12.081,7.049c-2.58,1.038-5.089,1.396-7.562,1.11
			c-2.438-0.287-4.877-1.217-7.314-2.828c-2.401-1.61-4.837-4.222-7.275-7.836c-2.939-4.331-4.661-7.945-5.162-10.879
			c-0.502-2.898-0.395-5.547,0.322-7.945c0.718-2.362,1.829-4.366,3.298-5.94c2.223-2.362,5.843-5.261,10.933-8.696L612.458,177.131
			L612.458,177.131z M650.348,243.656L650.348,243.656l6.773,20.827c1.327,4.116,2.151,7.265,2.475,9.376
			c0.323,2.148,0.179,4.187-0.394,6.155c-0.576,1.968-1.579,3.758-3.048,5.403c-1.469,1.646-3.334,2.863-5.591,3.58
			c-2.438,0.787-4.911,0.859-7.386,0.214c-2.436-0.644-4.551-1.933-6.309-3.864c0.107,3.471-0.681,6.44-2.365,8.874
			c-1.686,2.435-4.014,4.117-7.025,5.118c-2.367,0.751-4.876,0.967-7.456,0.572c-2.617-0.357-4.91-1.288-6.847-2.754
			c-1.971-1.468-3.55-3.58-4.803-6.264c-0.718-1.682-2.223-5.904-4.48-12.595l-5.771-17.715L650.348,243.656L650.348,243.656z
			 M645.077,257.005L645.077,257.005l-12.078,3.9l2.257,6.907c1.327,4.08,2.223,6.621,2.653,7.587
			c0.789,1.717,1.863,2.934,3.261,3.614c1.364,0.715,2.869,0.787,4.59,0.214c1.611-0.5,2.759-1.36,3.477-2.576
			c0.717-1.217,0.896-2.755,0.538-4.581c-0.215-1.074-1.111-4.08-2.725-9.055L645.077,257.005L645.077,257.005z M624.323,263.732
			L624.323,263.732l-13.979,4.509l3.189,9.734c1.219,3.793,2.115,6.191,2.653,7.121c0.788,1.467,1.899,2.505,3.334,3.149
			c1.435,0.608,3.082,0.644,4.911,0.036c1.576-0.5,2.758-1.324,3.62-2.434c0.825-1.108,1.29-2.468,1.327-4.043
			c0.033-1.611-0.754-4.796-2.294-9.591L624.323,263.732z"/>
		<path fill-rule="evenodd" clip-rule="evenodd" fill="#FFFFFF" d="M118.692,524.573l8.603-6.012l11.865,16.891l-8.639,6.013
			L118.692,524.573L118.692,524.573z M146.042,543.682c-6.058,6.265-9.104,12.848-9.104,19.79c0,6.908,2.939,13.17,8.818,18.858
			c5.807,5.584,12.188,8.232,19.106,7.98c6.954-0.25,13.513-3.542,19.643-9.912c6.237-6.406,9.319-13.097,9.319-20.075
			c0-6.979-2.939-13.241-8.746-18.858c-3.226-3.114-6.56-5.332-10.037-6.656c-2.581-1.004-5.413-1.469-8.495-1.361
			c-3.119,0.073-6.094,0.717-8.926,1.86C153.785,536.848,149.914,539.638,146.042,543.682L146.042,543.682L146.042,543.682z
			 M154.501,551.305c4.409-4.509,8.675-6.942,12.869-7.266c4.194-0.286,7.922,1.111,11.22,4.297
			c3.262,3.185,4.839,6.834,4.66,10.949c-0.18,4.151-2.438,8.482-6.811,12.991c-4.409,4.543-8.746,7.014-12.976,7.334
			c-4.266,0.323-7.958-1.072-11.147-4.115c-3.19-3.077-4.696-6.727-4.517-11.021C147.942,560.179,150.2,555.777,154.501,551.305
			L154.501,551.305L154.501,551.305z M182.891,612.249L182.891,612.249l29.68-45.593l9.284,6.049l-24.626,37.825l23.12,14.96
			l-5.054,7.765L182.891,612.249L182.891,612.249z M278.597,660.272L278.597,660.272l-11.184-4.509l0.251-13.349l-20.36-8.196
			l-8.854,9.844l-10.897-4.401l40.361-42.8l10.861,4.364L278.597,660.272L278.597,660.272z M267.808,632.537L267.808,632.537
			l0.61-21.687l-14.481,16.068L267.808,632.537L267.808,632.537z M304.585,664.495L304.585,664.495L294.8,607.13l11.864,2.076
			l6.595,42.371l20.289-37.612l11.578,2.042l-28.855,50.527L304.585,664.495L304.585,664.495z M397.747,669.146l-23.874-53.999
			l-11.722,0.394l-19.463,55.502l11.757-0.394l4.086-12.595l21.938-0.788l5.233,12.273L397.747,669.146L397.747,669.146
			L397.747,669.146z M376.598,648.177l-14.982,0.537l6.703-20.578L376.598,648.177L376.598,648.177L376.598,648.177z
			 M415.453,665.961L415.453,665.961l-12.33-53.392l22.727-5.224c5.735-1.324,10-1.789,12.795-1.432
			c2.798,0.357,5.271,1.573,7.423,3.649c2.112,2.112,3.547,4.725,4.264,7.909c0.933,4.008,0.502,7.586-1.253,10.736
			c-1.758,3.148-4.913,5.618-9.43,7.371c2.653,0.822,4.913,1.86,6.813,3.148c1.899,1.29,4.624,3.687,8.137,7.229l8.96,8.91
			l-12.903,3.007l-10.504-9.842c-3.729-3.505-6.237-5.688-7.491-6.548c-1.29-0.822-2.546-1.324-3.765-1.466
			c-1.253-0.145-3.118,0.107-5.591,0.678l-2.187,0.502l5.16,22.26L415.453,665.961L415.453,665.961z M419.146,632.646
			L419.146,632.646l7.993-1.824c5.162-1.183,8.353-2.146,9.571-2.898c1.183-0.717,2.008-1.719,2.473-2.935
			c0.502-1.254,0.538-2.648,0.178-4.26c-0.394-1.823-1.219-3.148-2.438-4.044c-1.217-0.859-2.722-1.251-4.551-1.144
			c-0.896,0.071-3.55,0.645-7.922,1.646l-8.423,1.931L419.146,632.646L419.146,632.646z M479.976,648.534l9.785-5.224
			l-10.755-20.184l1.974-1.037c2.257-1.217,3.978-1.897,5.197-2.076c1.256-0.179,2.58-0.037,4.014,0.429
			c1.47,0.501,4.446,1.968,8.963,4.367l12.688,6.798l11.687-6.226l-10.933-6.298c-4.338-2.508-7.599-4.152-9.75-4.903
			c-2.152-0.715-4.624-1.146-7.42-1.254c3.943-2.861,6.345-6.083,7.204-9.554c0.896-3.506,0.36-7.085-1.576-10.7
			c-1.542-2.862-3.584-5.046-6.167-6.512c-2.616-1.469-5.304-2.005-8.1-1.647c-2.833,0.395-6.811,1.934-12.007,4.688l-20.578,10.952
			L479.976,648.534L479.976,648.534L479.976,648.534z M474.884,615.396l-6.523-12.273l7.601-4.044
			c3.978-2.113,6.38-3.329,7.241-3.615c1.721-0.607,3.298-0.607,4.695-0.071c1.397,0.538,2.546,1.61,3.405,3.258
			c0.788,1.43,1.074,2.825,0.933,4.149c-0.145,1.324-0.683,2.507-1.65,3.508c-0.933,1.001-3.763,2.756-8.46,5.261L474.884,615.396
			L474.884,615.396L474.884,615.396z M538.117,615.147L538.117,615.147l-32.262-44.303l8.962-6.515l32.259,44.34L538.117,615.147
			L538.117,615.147z M600.057,559.643l-55.13-21.329l-7.994,8.553l25.559,53.001l8.029-8.59l-6.022-11.809l14.947-15.997
			l12.401,4.974L600.057,559.643L600.057,559.643L600.057,559.643z M570.268,559.75l-10.215,10.95l-9.857-19.287L570.268,559.75
			L570.268,559.75L570.268,559.75z M598.05,538.209L598.05,538.209l-8.639-6.013l11.865-16.928l8.602,6.049L598.05,538.209z"/>
	</g>
</g>
</svg>
