<?xml version="1.0" encoding="utf-8"?>
<!-- Generator: Adobe Illustrator 16.0.0, SVG Export Plug-In . SVG Version: 6.00 Build 0)  -->
<!DOCTYPE svg PUBLIC "-//W3C//DTD SVG 1.1//EN" "http://www.w3.org/Graphics/SVG/1.1/DTD/svg11.dtd">
<svg version="1.1" id="Capa_1" xmlns="http://www.w3.org/2000/svg" xmlns:xlink="http://www.w3.org/1999/xlink" x="0px" y="0px"
	 width="623px" height="735px" viewBox="0 0 623 735" enable-background="new 0 0 623 735" xml:space="preserve">
<g>
	<g>
		<path fill-rule="evenodd" clip-rule="evenodd" d="M11.782,630.36c0.958,1.511,1.6,7.688,2.235,9.76
			c1.016,3.316,2.037,6.003,3.451,9.007c2.493,5.298,6.225,10.447,10.116,14.336c9.313,9.312,17.304,13.394,31.811,17.097
			c16.813,4.29,73.393,1.935,96.338,1.935c32.603,0,65.206,0.002,97.811,0c16.239,0,27.414,5.156,36.536,12.371
			c4.17,3.298,8.854,8.038,12.094,12.358c2.026,2.699,8.809,12.432,9.503,15.41h0.462c8.28-15.649,25.454-40.14,48.443-40.14
			l188.886-0.587c58.234,0.018,63.025-52.931,63.025-52.932V13.973H11.782V630.36z"/>
		<path fill-rule="evenodd" clip-rule="evenodd" fill="#EDEDED" d="M18.241,628.515c0,12.632,8.355,25.193,14.879,31.72
			c9.071,9.074,17.383,11.816,32.146,14.915c11.254,2.361,31.448,1.347,45.251,1.347c15.687,0,31.374,0,47.06,0
			c31.219,0,62.439,0,93.66,0c18.701,0,25.525,2.783,37.357,9.702c5.504,3.217,21.488,18.012,23.082,23.979
			c1.488-1.092,7.583-10.609,10.261-13.269c4.146-4.115,7.54-7.826,12.339-11.19c12.521-8.776,17.235-9.222,37.84-9.222
			c31.374,0,62.747,0,94.121,0c28.422,0,67.148,1.937,93.155-0.964c11.768-1.313,24.586-9.022,31.306-15.755
			c5.546-5.558,15.336-21.679,15.336-32.186V20.432H18.241V628.515z"/>
		<path fill-rule="evenodd" clip-rule="evenodd" fill="#FFFFFF" d="M51.846,645.736L583.394,43.039H40.849v579.017
			c0,9.623,4.51,19.291,10.15,23.068L51.846,645.736z"/>
		<path fill-rule="evenodd" clip-rule="evenodd" d="M52.383,645.124l-0.537,0.612c10.789,5.709,12.677,7.692,29.143,7.692
			c11.996,0,23.991,0,35.987,0c23.992,0,47.983,0,71.976,0c23.99,0,47.984,0.048,71.975,0c12.038-0.024,21.544,2.341,30.396,5.591
			c3.703,1.36,8.284,4.247,11.407,6.588c3.047,2.283,6.647,6.733,9.41,8.582c2.882-1.93,7.045-6.733,10.736-9.563
			c3.82-2.93,9.037-5.229,13.772-6.989c5.726-2.127,9.175-3.325,17.016-3.285c6.438,0.034,12.726-0.924,19.837-0.924h137.49
			c17.732,0,34.246,1.702,49.57-1.644c12.902-2.817,22.865-14.053,22.865-29.729l-0.032-575.457v-3.56L52.383,645.124z"/>
		<path fill-rule="evenodd" clip-rule="evenodd" fill="#FFFFFF" d="M344.769,552.645c0,3.656-2.198,5.477-6.558,5.477h-44.705
			c-4.629,0-7.406,0.048-8.351,0.143c-3.839,0.432-5.767,1.581-5.767,3.465v28.189c0,3.08,5.285,4.629,15.872,4.629h42.661
			c2.044,0,3.664,0.623,4.86,1.868c1.099,1.133,1.639,2.489,1.639,4.118c0,1.66-0.54,3.032-1.639,4.165
			c-1.196,1.245-2.816,1.867-4.86,1.867h-42.661c-5.862,0-10.125-0.19-12.768-0.558c-3.278-0.463-6.634-1.484-10.047-3.049
			c-3.818-1.771-6.441-3.719-7.908-5.843c-1.331-1.931-1.986-4.262-1.986-7.007v-28.35c0-4.135,2.295-7.646,6.885-10.52
			c3.666-2.33,7.986-3.862,12.941-4.58c2.565-0.367,6.21-0.56,10.916-0.56h44.917C342.57,546.101,344.769,548.287,344.769,552.645
			L344.769,552.645z M378.513,599.688L378.513,599.688c0,2.026-1.042,3.639-3.105,4.852c-1.852,1.07-4.127,1.597-6.827,1.597
			c-2.681,0-4.937-0.526-6.789-1.597c-2.025-1.182-3.047-2.793-3.047-4.852c0-1.996,1.021-3.576,3.047-4.757
			c1.853-1.07,4.108-1.597,6.789-1.597c2.662,0,4.938,0.526,6.827,1.597C377.471,596.111,378.513,597.691,378.513,599.688
			L378.513,599.688z M507.172,598.697L507.172,598.697c0,5.491-2.99,8.236-8.988,8.236c-0.539,0-1.079-0.016-1.639-0.048
			c-1.929-0.16-4.224-1.181-6.905-3.065l-55.081-38.771v36.091c0,2.554-1.119,4.198-3.336,4.916c-1.119,0.336-3.452,0.51-6.943,0.51
			c-4.341,0-6.5-1.803-6.5-5.426v-47.521c0-1.931,0.193-3.271,0.559-4.022c0.58-1.085,1.795-2.091,3.685-2.985
			c1.312-0.623,2.738-0.941,4.282-0.941c3.278,0,6.537,1.134,9.777,3.416l54.311,38.294v-35.852c0-2.57,1.118-4.198,3.337-4.917
			c1.079-0.352,3.394-0.511,6.885-0.511c4.377,0,6.558,1.805,6.558,5.428V598.697L507.172,598.697z M540.183,599.688
			L540.183,599.688c0,2.026-1.041,3.639-3.105,4.852c-1.852,1.07-4.127,1.597-6.827,1.597c-2.681,0-4.937-0.526-6.788-1.597
			c-2.025-1.182-3.047-2.793-3.047-4.852c0-1.996,1.021-3.576,3.047-4.757c1.852-1.07,4.107-1.597,6.788-1.597
			c2.661,0,4.938,0.526,6.827,1.597C539.142,596.111,540.183,597.691,540.183,599.688z"/>
		<path fill-rule="evenodd" clip-rule="evenodd" d="M169.352,98.616c0,3.655-2.198,5.475-6.558,5.475h-44.706
			c-4.628,0-7.405,0.048-8.351,0.144c-3.838,0.431-5.767,1.581-5.767,3.464v28.189c0,3.082,5.285,4.629,15.873,4.629h42.66
			c2.045,0,3.665,0.623,4.861,1.868c1.099,1.133,1.639,2.489,1.639,4.118c0,1.66-0.54,3.033-1.639,4.166
			c-1.196,1.245-2.816,1.867-4.861,1.867h-42.66c-5.863,0-10.125-0.191-12.768-0.559c-3.279-0.463-6.634-1.484-10.048-3.049
			c-3.819-1.771-6.441-3.719-7.907-5.842c-1.331-1.931-1.987-4.262-1.987-7.007v-28.35c0-4.133,2.295-7.646,6.885-10.519
			c3.664-2.33,7.984-3.863,12.941-4.581c2.565-0.367,6.209-0.559,10.916-0.559h44.917C167.153,92.071,169.352,94.257,169.352,98.616
			L169.352,98.616z M203.096,145.656L203.096,145.656c0,2.028-1.042,3.64-3.105,4.853c-1.852,1.07-4.127,1.597-6.827,1.597
			c-2.681,0-4.938-0.526-6.789-1.597c-2.026-1.181-3.047-2.793-3.047-4.853c0-1.995,1.021-3.575,3.047-4.756
			c1.851-1.07,4.107-1.597,6.789-1.597c2.661,0,4.937,0.527,6.827,1.597C202.054,142.081,203.096,143.662,203.096,145.656
			L203.096,145.656z M332.371,144.763L332.371,144.763c0.193,0.718,0.289,1.421,0.289,2.107c0,2.059-0.791,3.703-2.392,4.932
			c-1.601,1.23-3.51,1.853-5.747,1.853c-3.144,0-5.689-1.149-7.617-3.464l-10.454-12.674h-50.704l-10.492,12.674
			c-1.619,1.963-3.587,2.952-5.882,2.952c-1.986,0-3.818-0.67-5.457-1.995c-1.64-1.324-2.45-2.665-2.45-4.038
			c0-0.591,0.193-1.118,0.56-1.596l39.672-50.218c1.89-2.362,4.995-3.639,9.315-3.83c1.658-0.064,3.433,0.239,5.323,0.893
			c2.18,0.767,3.452,1.772,3.838,2.985L332.371,144.763L332.371,144.763z M296.132,125.448L296.132,125.448l-15.024-18.389
			l-15.12,18.389H296.132L296.132,125.448z M365.729,145.656L365.729,145.656c0,2.028-1.041,3.64-3.104,4.853
			c-1.852,1.07-4.129,1.597-6.828,1.597c-2.681,0-4.937-0.526-6.788-1.597c-2.025-1.181-3.048-2.793-3.048-4.853
			c0-1.995,1.022-3.575,3.048-4.756c1.852-1.07,4.107-1.597,6.788-1.597c2.661,0,4.938,0.527,6.828,1.597
			C364.688,142.081,365.729,143.662,365.729,145.656z"/>
	</g>
</g>
</svg>
