<?xml version="1.0" encoding="utf-8"?>
<!-- Generator: Adobe Illustrator 16.0.0, SVG Export Plug-In . SVG Version: 6.00 Build 0)  -->
<!DOCTYPE svg PUBLIC "-//W3C//DTD SVG 1.1//EN" "http://www.w3.org/Graphics/SVG/1.1/DTD/svg11.dtd">
<svg version="1.1" id="Capa_1" xmlns="http://www.w3.org/2000/svg" xmlns:xlink="http://www.w3.org/1999/xlink" x="0px" y="0px"
	 width="643px" height="721px" viewBox="0 0 643 721" enable-background="new 0 0 643 721" xml:space="preserve">
<g>
	<g>
		<g>
			<path fill-rule="evenodd" clip-rule="evenodd" fill="#332D26" d="M99.75,194.88l23.285,365.162
				c0.272,4.29,2.742,11.779,4.308,15.097c2.551,5.41,5.005,7.273,7.981,11.425c4.315,6.019,16.767,11.664,27.491,11.643
				l135.255,0.579c8.155,1.554,15.355,9.125,22.979,15.866c8.465-6.741,12.194-12.45,21.576-15.805l135.517-0.641
				c23.02,0.021,36.979-17.542,40.041-37.58l23.347-365.746c2.206-42.937-30.332-44.379-30.332-44.379l-160.156-1.873
				c-13.962,0.001-25.701-15.632-30.301-27.307c-5.987,11.51-16.761,27.446-30.488,27.643l-144.847-0.134
				C145.404,148.83,99.259,148.592,99.75,194.88z"/>
			<path fill-rule="evenodd" clip-rule="evenodd" fill="#FADF00" d="M112.363,190.028l25.769,378.202
				c2.972,6.94,10.783,16.292,19.834,16.715c45.301,2.111,90.822,0.857,136.158,0.644c11.154-0.052,22.108,8.552,26.616,17.17
				c5.24-8.875,12.757-15.488,21.637-16.774l115.39-0.392c13.101,0,26.504,1.364,34.547-3.938
				c7.733-5.099,12.282-13.766,13.617-25.194l22.986-366.108c0.858-29.942-25.194-28.782-25.883-28.786c-43.66,0-97.984,0-141.644,0
				c-13.307,0-19.222,0.537-27.622-5.043c-7.979-5.299-12.209-13.545-13.452-19.538c-0.154,6.941-8.543,16.097-13.126,19.217
				c-8.59,5.847-13.598,5.364-27.301,5.364c-21.775,0-43.552,0-65.329,0c-21.776,0-43.552,0-65.329,0
				c-13.184,0-18.646,0.467-26.392,6.273c-3.39,2.542-4.842,5.616-6.93,9.243C114.61,179.342,112.363,186.621,112.363,190.028z"/>
			<path fill-rule="evenodd" clip-rule="evenodd" fill="#332D26" d="M299.294,173.533l-17.581-0.002l3.349,282.039h-72.442
				l-11.32-282.037h-61.125c-0.927,0-5.264,1.27-6.088,1.674c-1.904,0.934-3.518,1.708-4.826,3.259
				c-1.671,1.983-4.609,7.747-4.609,11.239l16.817,270.071h187.578c2.178,0,3.881,3.587,3.881,5.82v5.499
				c0,1.884-1.67,5.822-3.233,5.822H143.086c0,9.084,1.605,18.414,1.617,27.491c0.005,3.193,0.272,10.495,0.67,13.885
				c0.475,4.051,0.588,9.769,1.202,13.676c0.444,2.83,0.742,10.974,0.716,13.84c-0.04,4.478,0.809,8.879,0.956,13.598
				c0.227,7.24,7.504,14.219,15.214,14.219h54.002l-3.55-92.504h71.675l0.769,92.504c15.545-1.473,22.882,0.147,34.281,10.672
				c12.744-10.546,19.27-11.899,35.252-10.672l3.234-237.728l76.378,0.003l-10.726,237.725h52.715
				c9.962,0,15.702-7.851,15.836-17.803l14.242-223.806H314.818c-2.152,0-3.881-4.545-3.881-7.116v-3.881
				c0-2.492,1.768-6.145,4.852-6.145l192.95-0.008l7.889-126.132c0.856-15.333-14.676-15.168-15.524-15.202h-58.537l-5.822,137.138
				l-76.733-0.001l2.026-136.813h-19.082c-4.902,0-9.736-3.496-12.873-5.562c-1.878-1.236-3.2-2.703-4.975-4.082
				c-1.482-1.152-3.095-3.906-4.468-4.912c-0.58,0.425-3.112,3.597-4.123,4.608c-1.745,1.744-2.858,2.698-4.844,4.213
				C308.984,170.176,303.773,173.533,299.294,173.533z"/>
		</g>
		<polygon fill-rule="evenodd" clip-rule="evenodd" fill="#352F29" points="4.276,589.793 5.004,590.521 5.733,591.979 
			6.461,592.709 7.19,593.438 7.917,594.895 8.646,595.624 9.375,597.081 10.104,597.811 10.832,599.269 11.56,599.999 
			12.289,601.457 13.017,602.186 13.745,603.644 14.474,604.372 15.203,605.83 15.93,606.559 16.659,608.017 17.387,608.745 
			18.116,609.475 18.845,610.932 19.573,611.661 20.301,613.121 21.03,613.85 21.758,615.308 22.486,616.036 23.214,617.494 
			23.943,618.223 24.672,619.681 25.399,620.409 26.128,621.867 26.857,622.596 27.585,624.054 28.314,624.782 29.042,625.512 
			29.77,626.972 30.499,627.698 31.227,629.158 31.956,629.887 32.685,631.345 33.413,632.073 34.141,633.531 34.87,634.26 
			34.87,635.718 34.141,637.176 33.413,637.904 32.685,639.362 31.956,640.091 31.227,640.819 30.499,642.279 29.77,643.009 
			29.042,644.467 28.314,645.194 27.585,646.652 26.857,647.382 26.128,648.839 25.399,649.568 24.672,651.026 23.943,651.757 
			23.214,653.212 22.486,653.943 21.758,655.401 21.03,656.13 20.301,656.858 19.573,658.316 18.845,659.045 18.116,660.503 
			17.387,661.231 16.659,662.689 15.93,663.419 15.203,664.876 14.474,665.605 13.745,667.065 13.017,667.794 12.289,669.252 
			11.56,669.98 10.832,671.438 10.104,672.167 9.375,672.896 8.646,674.354 7.917,675.082 7.19,676.54 6.461,677.271 5.733,678.727 
			5.004,679.458 4.276,680.915 4.276,681.645 30.499,682.373 65.463,682.373 65.463,702.055 67.648,702.785 74.932,703.513 
			81.488,704.241 88.044,704.97 95.328,705.701 102.613,706.43 110.625,707.159 118.637,707.888 126.65,708.616 135.391,709.345 
			144.86,710.074 154.33,710.803 164.528,711.532 175.454,712.261 187.109,712.989 200.22,713.719 214.06,714.447 231.543,715.177 
			251.938,715.905 282.533,716.634 359.744,716.634 390.339,715.905 410.732,715.177 428.216,714.447 442.056,713.719 
			455.167,712.989 466.821,712.261 477.748,711.532 487.946,710.803 497.416,710.074 506.884,709.345 515.626,708.616 
			523.639,707.888 531.652,707.159 539.664,706.43 546.948,705.701 554.232,704.97 560.788,704.241 567.345,703.513 
			574.628,702.785 576.813,702.055 576.813,681.645 638,681.645 638,680.915 637.271,679.458 636.543,678.727 635.814,677.271 
			635.087,676.54 634.359,675.082 633.629,674.354 632.901,672.896 632.174,672.167 631.444,671.438 630.716,669.98 
			629.988,669.252 629.259,667.794 628.531,667.065 627.802,665.605 627.074,664.876 626.346,663.419 625.617,662.689 
			624.889,661.231 624.16,660.503 623.432,659.045 622.703,658.316 621.975,656.858 621.246,656.13 620.519,655.401 
			619.789,653.943 619.062,653.212 618.332,651.757 617.604,651.026 616.876,649.568 616.147,648.839 615.419,647.382 
			614.691,646.652 613.963,645.194 613.234,644.467 612.506,643.009 611.777,642.279 611.049,640.819 610.32,640.091 
			609.592,639.362 608.864,637.904 608.135,637.176 607.406,635.718 607.406,634.26 608.135,633.531 608.864,632.073 
			609.592,631.345 610.32,629.887 611.049,629.158 611.777,627.698 612.506,626.972 613.234,625.512 613.963,624.782 
			614.691,624.054 615.419,622.596 616.147,621.867 616.876,620.409 617.604,619.681 618.332,618.223 619.062,617.494 
			619.789,616.036 620.519,615.308 621.246,613.85 621.975,613.121 622.703,611.661 623.432,610.932 624.16,609.475 
			624.889,608.745 625.617,608.017 626.346,606.559 627.074,605.83 627.802,604.372 628.531,603.644 629.259,602.186 
			629.988,601.457 630.716,599.999 631.444,599.269 632.174,597.811 632.901,597.081 633.629,595.624 634.359,594.895 
			635.087,593.438 635.814,592.709 636.543,591.979 637.271,590.521 638,589.793 638,588.335 553.504,588.335 549.134,593.438 
			549.134,611.661 545.491,611.661 538.935,612.39 531.652,613.121 524.366,613.85 516.354,614.576 508.341,615.308 
			500.329,616.036 491.588,616.766 482.118,617.494 472.648,618.223 462.451,618.952 450.797,619.681 438.413,620.409 
			425.302,621.139 409.277,621.867 390.339,622.596 364.843,623.325 273.791,623.325 248.296,622.596 229.357,621.867 
			214.06,621.139 200.22,620.409 188.566,619.681 177.64,618.952 167.442,618.223 157.973,617.494 148.503,616.766 140.49,616.036 
			131.749,615.308 124.465,614.576 116.453,613.85 109.168,613.121 102.613,612.39 96.057,611.661 93.143,611.661 93.143,593.438 
			88.801,588.394 4.276,588.335 		"/>
		<path fill-rule="evenodd" clip-rule="evenodd" fill="#FDE100" d="M74.204,693.309c8.092,0,21.805,1.22,30.542,2.238
			c8.491,0.987,20.744,1.788,29.472,3.31c9.399,1.638,21.297,0.883,30.465,2.315c9.042,1.41,21.623,0.554,31.116,1.663
			c17.732,2.077,44.279,2.174,62.668,2.894c21.677,0.847,42.98,0.701,64.857,0.701h7.284c42.235,0,81.231-2.125,121.673-3.618
			c8.127-0.3,20.251-1.731,29.11-2.215c9.029-0.491,20.788-0.836,29.136-2.187c6.116-0.989,22.772-2.728,28.382-2.943
			c10.676-0.412,19.347-2.158,29.164-2.158v-72.899c-75.521,6.744-162.329,15.849-246.206,13.851h-24.038
			c-19.938,0-38.5-1.46-57.544-1.457c-18.688,0-39.159-2.982-56.815-2.918c-10.035,0.038-17.668-1.888-26.926-2.213
			c-8.065-0.283-20.911-0.745-27.89-1.977c-8.206-1.449-19.092-1.821-26.918-2.947c-8.423-1.217-18.643-2.339-27.53-2.339V693.309z"
			/>
		<polygon fill-rule="evenodd" clip-rule="evenodd" fill="#FDE100" points="46.646,634.907 21.758,672.167 65.463,672.167 
			65.463,608.745 77.846,598.539 22.105,598.8 		"/>
		<polygon fill-rule="evenodd" clip-rule="evenodd" fill="#FDE100" points="576.813,608.745 576.813,671.438 620.063,671.25 
			595.63,634.907 619.789,598.539 564.43,598.539 		"/>
		<polygon fill-rule="evenodd" clip-rule="evenodd" fill="#332D26" points="318.569,8.702 317.859,9.495 298.934,39.333 
			261.846,48.084 260.391,48.813 260.391,49.542 261.118,51.001 285.117,77.985 282.936,115.908 284.366,115.762 319.296,102.052 
			320.024,102.052 354.931,115.908 356.394,116.205 356.327,114.899 354.203,77.985 378.202,51.001 378.93,49.542 378.93,48.813 
			377.475,48.084 342.567,40.063 340.387,39.333 339.659,37.874 321.479,9.432 320.752,8.702 320.024,7.973 319.296,7.973 		"/>
		<polygon fill-rule="evenodd" clip-rule="evenodd" fill="#FDE100" points="277.117,53.918 295.212,75.061 293.116,102.052 
			319.296,91.842 346.321,102.042 343.966,75.018 362.203,53.918 333.95,46.516 319.296,24.747 305.371,46.516 		"/>
		<path fill-rule="evenodd" clip-rule="evenodd" d="M124.016,642.126c-0.671-0.42-1.52-0.816-2.461-1.193
			c-0.938-0.374-2.014-0.694-3.222-0.97c-1.161-0.266-2.46-0.464-3.892-0.554c-2.549-0.162-4.787,0.062-6.755,0.649
			c-1.966,0.586-3.639,1.473-5.011,2.672c-1.357,1.185-2.352,2.627-3.042,4.292c-0.696,1.678-1.075,3.497-1.075,5.491
			c0,2.789,0.907,5.375,2.685,7.788c1.756,2.384,4.377,4.576,7.875,6.507c1.512,0.836,2.725,1.586,3.714,2.311
			c0.979,0.716,1.701,1.445,2.146,2.201c0.45,0.768,0.672,1.605,0.672,2.548c0,0.938-0.228,1.74-0.672,2.413
			c-0.449,0.682-1.167,1.178-2.102,1.514c-0.899,0.325-2.06,0.466-3.491,0.365c-1.162-0.079-2.371-0.284-3.534-0.586
			c-1.163-0.301-2.284-0.686-3.311-1.117c-1.029-0.432-1.923-0.894-2.729-1.386c-0.581,2.954-1.162,5.904-1.7,8.852
			c0.716,0.464,1.604,0.921,2.73,1.361c1.156,0.451,2.414,0.827,3.801,1.159c1.386,0.329,2.863,0.553,4.34,0.653
			c2.685,0.187,5.058-0.011,7.113-0.574c2.06-0.567,3.846-1.46,5.279-2.662c1.429-1.198,2.526-2.654,3.267-4.395
			c0.735-1.727,1.118-3.683,1.118-5.824c0-1.937-0.359-3.766-1.029-5.478c-0.67-1.71-1.748-3.31-3.22-4.801
			c-1.48-1.498-3.357-2.886-5.683-4.151c-1.791-0.975-3.186-1.816-4.25-2.554c-1.037-0.719-1.777-1.447-2.237-2.118
			c-0.478-0.695-0.693-1.462-0.671-2.305c0.02-0.777,0.195-1.471,0.626-2.101c0.417-0.607,1.031-1.099,1.879-1.428
			c0.852-0.331,1.926-0.478,3.222-0.392c1.208,0.083,2.279,0.276,3.22,0.537c0.983,0.273,1.833,0.574,2.595,0.925
			c0.758,0.351,1.432,0.687,1.925,1.012C122.763,647.903,123.389,645.011,124.016,642.126L124.016,642.126z M156.942,642.594
			L156.942,642.594c-4.249-0.225-8.499-0.475-12.706-0.723c-1.967,7.705-3.937,15.402-5.86,23.097
			c-1.925,7.697-3.847,15.396-5.771,23.096c3.354,0.198,6.754,0.408,10.154,0.611c0.762-3.594,1.566-7.18,2.371-10.773
			c3.357,0.204,6.756,0.406,10.156,0.588c0.851,3.684,1.7,7.366,2.55,11.049c3.445,0.175,6.891,0.351,10.38,0.529
			c-1.879-7.912-3.758-15.827-5.637-23.737C160.702,658.421,158.822,650.509,156.942,642.594L156.942,642.594z M146.34,669.903
			L146.34,669.903c0.626-3.095,1.306-6.184,1.968-9.284c0.143-0.672,0.292-1.415,0.448-2.238c0.156-0.821,0.291-1.68,0.447-2.559
			c0.157-0.89,0.315-1.751,0.493-2.586c0.18-0.847,0.313-1.634,0.447-2.339c0.044,0,0.09,0.007,0.135,0.007
			c0.133,0.723,0.287,1.511,0.447,2.377c0.153,0.838,0.334,1.72,0.493,2.615c0.154,0.877,0.291,1.764,0.447,2.608
			c0.156,0.847,0.343,1.615,0.493,2.338c0.656,3.17,1.252,6.344,1.922,9.514C151.485,670.209,148.89,670.058,146.34,669.903
			L146.34,669.903z M210.406,645.028L210.406,645.028c-3.042-0.124-6.039-0.248-9.037-0.372c0,3.728,0,7.444,0,11.166
			c0,2.604,0.067,5.123,0.135,7.586c0.066,2.451,0.2,4.772,0.313,6.977c0.111,2.194,0.268,4.219,0.447,6.062
			c-0.044,0-0.089-0.007-0.134-0.007c-0.403-1.21-0.85-2.475-1.342-3.803c-0.491-1.32-1.051-2.642-1.566-3.985
			c-0.513-1.338-1.029-2.645-1.565-3.903c-0.537-1.259-1.087-2.42-1.565-3.497c-1.266-2.847-2.506-5.704-3.758-8.558
			c-1.252-2.852-2.505-5.71-3.759-8.563c-3.58-0.147-7.158-0.311-10.737-0.485c0,7.822,0,15.64,0,23.458c0,7.816,0,15.64,0,23.458
			c2.997,0.151,5.995,0.275,9.037,0.404c0-3.841,0-7.68,0-11.527c0-4.198-0.09-8.066-0.178-11.596
			c-0.09-3.535-0.224-6.678-0.359-9.428c0.046,0,0.135,0.006,0.224,0.011c0.403,1.244,0.851,2.537,1.343,3.893
			c0.491,1.356,1.034,2.723,1.566,4.095c0.54,1.394,1.119,2.74,1.655,4.051c0.539,1.314,1.098,2.539,1.61,3.699
			c1.276,2.888,2.549,5.795,3.803,8.693c1.251,2.892,2.596,5.788,3.892,8.687c3.312,0.141,6.622,0.282,9.977,0.401
			c0-7.818,0-15.642,0-23.458S210.406,652.852,210.406,645.028L210.406,645.028z M249.733,646.231L249.733,646.231
			c-10.067-0.244-20.088-0.564-30.11-0.892c0,3.117,0,6.229,0,9.347c3.312,0.107,6.623,0.217,9.977,0.323c0,6.263,0,12.527,0,18.786
			c0,6.258,0,12.527,0,18.786c3.311,0.112,6.666,0.227,10.022,0.305c0-6.252,0-12.517,0-18.774c0-6.252,0-12.523,0-18.782
			c3.355,0.086,6.71,0.165,10.111,0.244C249.733,652.462,249.733,649.35,249.733,646.231L249.733,646.231z M278.858,646.809
			L278.858,646.809c-4.251-0.058-8.502-0.119-12.706-0.198c-1.97,7.771-3.939,15.549-5.861,23.316
			c-1.924,7.771-3.849,15.544-5.772,23.315c3.355,0.081,6.756,0.16,10.156,0.239c0.76-3.627,1.565-7.255,2.372-10.88
			c3.355,0.052,6.757,0.097,10.156,0.146c0.85,3.661,1.698,7.306,2.55,10.954c3.444,0.049,6.889,0.101,10.378,0.152
			c-1.879-7.84-3.758-15.687-5.636-23.524C282.616,662.493,280.737,654.653,278.858,646.809L278.858,646.809z M268.254,674.546
			L268.254,674.546c0.671-3.116,1.351-6.239,2.013-9.364c0.143-0.675,0.269-1.423,0.403-2.259c0.135-0.825,0.336-1.68,0.492-2.569
			c0.156-0.889,0.293-1.772,0.447-2.61c0.159-0.86,0.313-1.644,0.448-2.354c0.044,0,0.089,0,0.134,0
			c0.135,0.716,0.291,1.5,0.447,2.349c0.156,0.844,0.314,1.712,0.491,2.599c0.179,0.875,0.336,1.746,0.493,2.58
			c0.157,0.84,0.308,1.612,0.447,2.323c0.621,3.146,1.253,6.28,1.924,9.42C273.399,674.627,270.805,674.586,268.254,674.546
			L268.254,674.546z M347.801,647.084L347.801,647.084c-4.027,0.018-8.054,0.034-12.079,0.056c-0.627,2.516-1.253,5.04-1.88,7.554
			c-0.626,2.519-1.257,5.032-1.878,7.552c-0.451,1.823-0.871,3.685-1.298,5.598c-0.422,1.894-0.806,3.797-1.163,5.694
			c-0.357,1.896-0.717,3.749-1.03,5.562c-0.09,0-0.179,0-0.223,0c-0.403-2.768-0.941-5.551-1.521-8.359
			c-0.582-2.817-1.179-5.619-1.833-8.404c-0.597-2.528-1.21-5.049-1.791-7.575c-0.582-2.522-1.164-5.055-1.744-7.586
			c-4.117-0.017-8.188-0.034-12.258-0.056c-0.538,7.813-1.029,15.618-1.521,23.425c-0.491,7.799-0.984,15.611-1.477,23.41
			c2.998,0.018,5.995,0.035,8.992,0.052c0.09-2.772,0.27-5.557,0.358-8.331c0.091-2.772,0.292-5.558,0.403-8.336
			c0.069-1.695,0.135-3.515,0.225-5.461c0.09-1.961,0.156-3.963,0.222-6.007c0.066-2.039,0.18-4.044,0.225-5.986
			c0.045,0,0.089,0,0.178,0c0.313,1.932,0.626,3.892,0.986,5.875c0.356,1.976,0.737,3.889,1.117,5.727
			c0.38,1.845,0.773,3.505,1.12,5.022c0.637,2.781,1.297,5.563,1.923,8.341c0.627,2.78,1.342,5.553,2.015,8.331
			c2.505-0.01,5.055-0.027,7.604-0.033c0.717-2.801,1.433-5.603,2.146-8.398c0.717-2.801,1.396-5.606,2.148-8.404
			c0.408-1.522,0.85-3.188,1.298-5.027c0.445-1.83,0.895-3.729,1.343-5.694c0.445-1.96,0.896-3.886,1.252-5.777
			c0.045,0,0.089,0,0.179-0.007c-0.045,2.073,0.023,4.123,0.044,6.152c0.022,2.032,0.069,3.999,0.137,5.896
			c0.064,1.898,0.154,3.677,0.224,5.348c0.11,2.785,0.178,5.57,0.267,8.36c0.09,2.784,0.224,5.576,0.358,8.358
			c3.132-0.017,6.264-0.027,9.439-0.062c-0.447-7.795-0.895-15.601-1.296-23.394C348.607,662.696,348.202,654.884,347.801,647.084
			L347.801,647.084z M382.518,646.616L382.518,646.616c-4.249,0.073-8.499,0.141-12.706,0.196
			c-1.967,7.836-3.937,15.67-5.859,23.493c-1.925,7.827-3.848,15.656-5.771,23.479c3.355-0.045,6.755-0.09,10.156-0.142
			c0.804-3.638,1.61-7.279,2.415-10.929c3.354-0.047,6.711-0.096,10.11-0.171c0.852,3.61,1.701,7.221,2.595,10.824
			c3.446-0.082,6.892-0.158,10.336-0.237c-1.88-7.75-3.759-15.505-5.637-23.255C386.277,662.128,384.397,654.371,382.518,646.616
			L382.518,646.616z M371.915,674.642L371.915,674.642c0.671-3.133,1.354-6.272,2.015-9.415c0.141-0.675,0.247-1.432,0.401-2.266
			c0.156-0.831,0.336-1.687,0.492-2.58c0.156-0.899,0.294-1.778,0.447-2.62c0.159-0.861,0.314-1.656,0.493-2.368
			c0,0,0.045,0,0.089,0c0.133,0.707,0.29,1.49,0.447,2.334c0.155,0.834,0.336,1.703,0.493,2.575c0.155,0.872,0.313,1.734,0.49,2.563
			c0.18,0.836,0.309,1.601,0.448,2.306c0.62,3.119,1.252,6.235,1.923,9.341C377.061,674.563,374.465,674.604,371.915,674.642
			L371.915,674.642z M425.468,670.106L425.468,670.106c1.344-0.62,2.582-1.514,3.669-2.638c1.105-1.143,1.992-2.466,2.641-4.016
			c0.648-1.544,0.982-3.247,0.982-5.09c0-2.135-0.314-3.937-0.895-5.42c-0.582-1.492-1.342-2.713-2.325-3.672
			c-0.984-0.963-2.052-1.713-3.266-2.249c-1.247-0.547-2.506-0.924-3.803-1.158c-1.298-0.233-2.553-0.37-3.804-0.406
			c-1.209-0.034-2.325-0.034-3.31,0.006c-1.521,0.06-2.999,0.144-4.432,0.276c-1.43,0.132-2.773,0.293-4.025,0.464
			c-1.253,0.173-2.415,0.371-3.445,0.575c0,7.688,0,15.38,0,23.068s0,15.381,0,23.063c3.312-0.109,6.622-0.217,9.978-0.329
			c0-3.027,0-6.066,0-9.1c0-3.026,0-6.066,0-9.105c0.626-0.017,1.255-0.029,1.925-0.062c1.116-0.052,2.053,0.121,2.817,0.513
			c0.754,0.387,1.368,1.109,1.834,2.138c0.473,1.039,0.871,2.492,1.209,4.354c0.333,1.838,0.692,3.486,1.028,4.97
			c0.333,1.477,0.65,2.729,0.939,3.747c0.291,1.025,0.537,1.761,0.716,2.201c3.444-0.113,6.89-0.227,10.38-0.361
			c-0.224-0.464-0.448-1.147-0.716-2.066c-0.269-0.921-0.538-1.988-0.807-3.198c-0.27-1.214-0.56-2.489-0.85-3.802
			c-0.292-1.323-0.607-2.61-0.895-3.869c-0.339-1.479-0.715-2.803-1.207-3.948c-0.49-1.141-1.077-2.101-1.79-2.881
			c-0.718-0.782-1.565-1.376-2.551-1.761C425.468,670.271,425.468,670.192,425.468,670.106L425.468,670.106z M413.434,666.514
			L413.434,666.514c0-2.105,0-4.213,0-6.318c0-2.107,0-4.215,0-6.32c0.268-0.103,0.673-0.188,1.253-0.261
			c0.538-0.066,1.209-0.126,1.969-0.151c0.626-0.023,1.254,0.019,1.968,0.173c0.671,0.146,1.333,0.453,1.924,0.876
			c0.615,0.44,1.162,1.059,1.566,1.881c0.401,0.825,0.58,1.898,0.58,3.222c0,1.28-0.248,2.43-0.761,3.426
			c-0.517,1.009-1.295,1.807-2.28,2.402c-0.982,0.595-2.193,0.932-3.623,0.987C415.134,666.464,414.283,666.488,413.434,666.514
			L413.434,666.514z M443.677,691.48L443.677,691.48c3.355-0.147,6.71-0.295,10.067-0.436c0-7.789,0-15.584,0-23.373
			c0-7.788,0-15.588,0-23.383c-3.357,0.141-6.712,0.288-10.067,0.436c0,7.793,0,15.589,0,23.377
			C443.677,675.891,443.677,683.686,443.677,691.48L443.677,691.48z M498.662,641.889L498.662,641.889
			c-3.043,0.192-6.04,0.384-9.038,0.57c0,3.717,0,7.421,0,11.128c0,2.59,0.066,5.1,0.135,7.545c0.066,2.438,0.2,4.731,0.313,6.914
			c0.111,2.181,0.268,4.175,0.402,5.993c-0.044,0.005-0.089,0.005-0.089,0.005c-0.404-1.163-0.851-2.377-1.344-3.649
			c-0.491-1.269-1.05-2.534-1.565-3.816c-0.516-1.283-1.029-2.537-1.565-3.74c-0.537-1.202-1.087-2.311-1.567-3.337
			c-1.264-2.713-2.504-5.453-3.756-8.174c-1.253-2.723-2.506-5.45-3.759-8.187c-3.579,0.195-7.159,0.385-10.737,0.577
			c0,7.795,0,15.588,0,23.373c0,7.788,0,15.583,0,23.372c2.998-0.157,5.994-0.31,9.037-0.472c0-3.83,0-7.667,0-11.495
			c0-4.186-0.09-8.032-0.179-11.54c-0.091-3.512-0.223-6.633-0.359-9.36c0.046,0,0.137-0.006,0.225-0.01
			c0.402,1.201,0.849,2.44,1.342,3.755c0.49,1.3,1.034,2.614,1.567,3.931c0.538,1.332,1.121,2.621,1.654,3.876
			c0.539,1.263,1.1,2.43,1.61,3.534c1.278,2.767,2.55,5.543,3.803,8.305c1.252,2.761,2.596,5.529,3.893,8.28
			c3.312-0.199,6.621-0.413,9.978-0.622c0-7.789,0-15.584,0-23.373C498.662,657.483,498.662,649.684,498.662,641.889
			L498.662,641.889z M532.036,639.602L532.036,639.602c-4.249,0.316-8.499,0.626-12.705,0.936
			c-1.969,7.947-3.938,15.886-5.861,23.799c-1.924,7.916-3.847,15.838-5.771,23.744c3.355-0.209,6.755-0.417,10.155-0.654
			c0.805-3.683,1.611-7.365,2.415-11.061c3.356-0.244,6.712-0.485,10.111-0.728c0.852,3.57,1.7,7.14,2.596,10.702
			c3.446-0.247,6.891-0.495,10.381-0.75c-1.924-7.66-3.804-15.332-5.683-22.994C535.796,654.936,533.916,647.266,532.036,639.602
			L532.036,639.602z M521.434,668.228L521.434,668.228c0.671-3.176,1.35-6.35,2.014-9.53c0.142-0.683,0.247-1.443,0.402-2.287
			c0.156-0.84,0.316-1.706,0.492-2.609c0.18-0.916,0.337-1.783,0.491-2.649c0.156-0.865,0.314-1.673,0.448-2.396
			c0,0,0.046,0,0.091-0.004c0.132,0.705,0.29,1.47,0.445,2.311c0.155,0.826,0.337,1.68,0.494,2.545
			c0.155,0.861,0.338,1.722,0.49,2.538c0.158,0.826,0.309,1.581,0.449,2.28c0.62,3.08,1.296,6.158,1.968,9.235
			C526.625,667.847,524.028,668.04,521.434,668.228z"/>
		<path fill-rule="evenodd" clip-rule="evenodd" fill="#FFED00" d="M176.039,238.631l10.258,3.961
			c-1.608,7.162-4.258,12.388-7.981,15.692c-3.722,3.291-8.308,4.944-13.743,4.944c-6.833,0-12.373-2.636-16.616-7.891
			c-4.898-6.074-7.34-14.279-7.34-24.597c0-10.914,2.457-19.446,7.384-25.609c4.273-5.345,10.007-8.025,17.228-8.025
			c5.866,0,10.78,2.01,14.74,6.015c2.814,2.859,4.884,7.088,6.194,12.702l-10.467,3.052c-0.67-3.469-1.995-6.12-3.99-7.967
			c-1.995-1.846-4.348-2.769-7.043-2.769c-3.87,0-7.027,1.683-9.469,5.062c-2.442,3.365-3.663,8.934-3.663,16.706
			c0,8.056,1.191,13.788,3.573,17.183c2.383,3.41,5.479,5.107,9.292,5.107c2.798,0,5.211-1.087,7.236-3.247
			C173.67,246.776,175.145,243.336,176.039,238.631z"/>
		<path fill-rule="evenodd" clip-rule="evenodd" d="M380.977,198.191h19.311c4.884,0,8.576,0.55,11.063,1.638
			c2.485,1.086,4.779,2.933,6.863,5.523c2.1,2.576,3.738,5.941,4.942,10.066c1.191,4.139,1.787,9.261,1.787,15.395
			c0,5.54-0.625,10.333-1.876,14.428c-1.25,4.08-2.844,7.311-4.765,9.708c-1.921,2.381-4.229,4.169-6.952,5.375
			c-2.726,1.206-6.21,1.816-10.497,1.816h-19.877V198.191L380.977,198.191z M391.518,209.016L391.518,209.016v42.345h7.951
			c3.395,0,5.867-0.313,7.386-0.953c1.532-0.64,2.782-1.608,3.751-2.902c0.983-1.296,1.787-3.336,2.427-6.135
			c0.641-2.786,0.953-6.462,0.953-11.033c0-4.735-0.327-8.472-0.983-11.212c-0.653-2.725-1.667-4.883-3.052-6.446
			c-1.384-1.579-3.052-2.606-5.032-3.098c-1.49-0.388-4.348-0.566-8.591-0.566H391.518z"/>
		<path fill-rule="evenodd" clip-rule="evenodd" fill="#FFED00" d="M453.889,241.341l10.333-1.235
			c1.161,8.173,4.973,12.268,11.436,12.268c3.186,0,5.702-0.833,7.533-2.515c1.847-1.667,2.755-3.738,2.755-6.209
			c0-1.459-0.313-2.695-0.953-3.708c-0.641-1.027-1.622-1.861-2.934-2.515c-1.31-0.656-4.468-1.743-9.499-3.292
			c-4.512-1.37-7.816-2.843-9.901-4.452c-2.1-1.593-3.768-3.693-5.003-6.298c-1.235-2.605-1.847-5.405-1.847-8.398
			c0-3.484,0.789-6.625,2.368-9.425c1.593-2.785,3.781-4.898,6.566-6.327c2.799-1.415,6.239-2.129,10.347-2.129
			c6.166,0,10.974,1.667,14.428,5.018c3.469,3.335,5.301,8.13,5.494,14.354l-10.585,0.565c-0.477-3.439-1.475-5.837-3.022-7.207
			c-1.534-1.355-3.737-2.04-6.582-2.04c-2.844,0-5.047,0.596-6.581,1.787c-1.548,1.19-2.322,2.665-2.322,4.452
			c0,1.742,0.699,3.202,2.1,4.393c1.4,1.205,4.616,2.501,9.634,3.931c5.329,1.548,9.171,3.171,11.538,4.868s4.184,3.901,5.435,6.582
			c1.252,2.695,1.877,5.956,1.877,9.797c0,5.553-1.713,10.214-5.122,13.996c-3.424,3.781-8.77,5.672-16.036,5.672
			C462.494,263.272,455.332,255.962,453.889,241.341z"/>
		<polygon fill-rule="evenodd" clip-rule="evenodd" fill="#FFED00" points="315.359,262.141 315.359,235.221 296.166,198.191 
			308.554,198.191 320.898,223.488 333.032,198.191 345.197,198.191 325.914,235.311 325.914,262.141 		"/>
		<path fill-rule="evenodd" clip-rule="evenodd" d="M220.094,241.341l10.333-1.235c1.161,8.173,4.973,12.268,11.436,12.268
			c3.186,0,5.702-0.833,7.533-2.515c1.847-1.667,2.755-3.738,2.755-6.209c0-1.459-0.313-2.695-0.953-3.708
			c-0.641-1.027-1.623-1.861-2.933-2.515c-1.311-0.656-4.467-1.743-9.5-3.292c-4.512-1.37-7.816-2.843-9.901-4.452
			c-2.1-1.593-3.767-3.693-5.003-6.298c-1.235-2.605-1.847-5.405-1.847-8.398c0-3.484,0.789-6.625,2.368-9.425
			c1.593-2.785,3.782-4.898,6.566-6.327c2.799-1.415,6.238-2.129,10.348-2.129c6.165,0,10.974,1.667,14.428,5.018
			c3.469,3.335,5.301,8.13,5.495,14.354l-10.586,0.565c-0.477-3.439-1.475-5.837-3.023-7.207c-1.534-1.355-3.737-2.04-6.582-2.04
			c-2.844,0-5.047,0.596-6.581,1.787c-1.548,1.19-2.322,2.665-2.322,4.452c0,1.742,0.699,3.202,2.1,4.393
			c1.4,1.205,4.616,2.501,9.633,3.931c5.331,1.548,9.172,3.171,11.539,4.868c2.368,1.697,4.184,3.901,5.435,6.582
			c1.251,2.695,1.876,5.956,1.876,9.797c0,5.553-1.713,10.214-5.123,13.996c-3.425,3.781-8.77,5.672-16.035,5.672
			C228.7,263.272,221.538,255.962,220.094,241.341z"/>
	</g>
</g>
</svg>
