<?xml version="1.0" encoding="utf-8"?>
<!-- Generator: Adobe Illustrator 16.0.0, SVG Export Plug-In . SVG Version: 6.00 Build 0)  -->
<!DOCTYPE svg PUBLIC "-//W3C//DTD SVG 1.1//EN" "http://www.w3.org/Graphics/SVG/1.1/DTD/svg11.dtd">
<svg version="1.1" id="Capa_1" xmlns="http://www.w3.org/2000/svg" xmlns:xlink="http://www.w3.org/1999/xlink" x="0px" y="0px"
	 width="561px" height="721px" viewBox="0 0 561 721" enable-background="new 0 0 561 721" xml:space="preserve">
<g>
	<g>
		<path fill-rule="evenodd" clip-rule="evenodd" fill="#E1171D" d="M5.31,175.082v24.757c0.458,0.722,1.914,41.431,2.746,46.767
			c0.9,5.777,2.271,16.493,2.559,22.198c0.344,6.823,1.85,14.777,2.665,21.649c1.673,14.114,4.888,28.662,7.54,41.973
			c1.375,6.897,2.656,13.557,4.56,20.196c1.828,6.374,2.849,13.328,4.997,19.317c2.202,6.14,3.488,12.85,5.594,19.162
			c2.1,6.292,3.821,12.604,6.083,18.672c4.457,11.953,9.064,23.603,13.707,35.364c8.461,21.439,21.348,46.388,32.665,65.473
			c12.611,21.266,25.003,39.811,39.328,59.254c14.233,19.319,28.849,35.717,44.762,53.376c7.979,8.853,15.901,16.8,24.305,25.205
			c8.15,8.15,17.521,15.589,25.417,23.652c6.374,6.508,18.937,17.098,26.368,22.698c3.292,2.481,26.202,20.44,27.229,21.84h10.608
			c8.297-7.213,20.002-13.44,28.624-20.887c4.419-3.814,9.424-6.967,13.919-10.835c4.075-3.509,9.114-7.699,13.418-10.896
			c8.282-6.146,18.362-15.942,25.914-23.153c8.667-8.271,16.311-15.85,24.764-24.305c15.704-15.704,31.841-34.842,45.237-52.9
			c7.141-9.625,13.534-18.741,20.25-28.818c6.795-10.193,12.134-19.958,18.566-30.505c22.485-36.866,44.611-92.973,56.403-140.318
			c3.305-13.261,5.906-26.007,9.017-40.051c1.538-6.939,2.695-13.791,3.851-20.907c1.043-6.421,1.729-14.834,3.081-21.233
			c1.417-6.706,1.554-14.813,2.799-21.958c0.977-5.611,1.96-16.526,2.014-22.3c0.031-3.615,2.275-45.785,2.667-46.404v-26.083
			l-7.808-8.531c-4.811,0.131-18.881-1.787-23.769-2.77c-6.993-1.407-15.157-3.598-21.514-4.569
			c-11.853-1.812-29.513-8.135-40.109-12.051c-25.473-9.416-48.897-20.696-69.998-34.766c-21.728-14.487-40.028-28.492-58.15-46.618
			c-9.194-9.194-16.549-17.697-24.979-27.625c-6.434-7.577-17.399-21.507-21.986-30.178h-15.029
			c-5.258,9.939-15.127,21.474-21.918,30.688c-6.689,9.076-16.458,19.848-24.385,27.777c-18.444,18.446-35.047,32.762-57.221,47.547
			c-18.5,12.335-47.072,27.454-70.258,34.507c-13.388,4.072-26.137,8.663-41.007,11.596c-3.477,0.686-7.588,1.141-11.278,1.984
			c-2.24,0.511-9.66,1.341-11.007,1.811c-1.315,0.459-21.264,2.798-23.283,2.798L5.31,175.082z"/>
		<path fill-rule="evenodd" clip-rule="evenodd" fill="#FFFFFD" d="M24.316,183.039h-1.326v15.031
			c0,19.893,2.291,41.065,3.991,59.668c0.898,9.826,2.41,19.044,3.51,28.319c0.569,4.802,1.492,9.404,2.177,13.738
			c0.45,2.849,2.256,11.75,2.256,13.658v1.769h493.309c1.833-7.874,3.659-21.979,4.433-30.49c0.812-8.919,3.572-22.598,3.532-31.392
			c-0.046-10.016,2.202-21.759,2.202-32.724c-0.002-11.278,0.883-22.228,0.883-34.041v-3.537c-10.859,0-34.105-5.039-43.59-7.686
			c-14.314-3.996-26.753-7.043-39.575-12.146c-24.219-9.636-48.729-20.562-68.895-34.102
			c-20.008-13.433-41.377-28.148-58.017-44.983c-4.354-4.404-8.438-8.442-12.817-12.821c-4.353-4.352-8.148-9.56-12.375-13.708
			c-3.763-3.692-8.242-9.7-11.562-14.078c-1.64-2.163-10.317-14.034-11.316-14.765c-0.968,0.71-9.292,12.55-10.929,14.71
			c-3.753,4.951-7.837,9.372-11.437,14.202c-6.865,9.209-16.483,18.564-24.599,26.681c-17.416,17.417-35.945,32.252-56.995,46.004
			c-21.811,14.25-42.85,23.563-68.604,33.953c-10.361,4.181-28.205,9.219-39.701,11.576c-7.218,1.479-13.924,2.945-21.386,4.253
			C41.624,181.158,30.05,183.039,24.316,183.039z"/>
		<path fill-rule="evenodd" clip-rule="evenodd" fill="#FFFFFD" d="M243.565,666.681c0,1.811,34.116,29.767,38.015,31.83
			c4.088-2.738,38.015-27.262,38.015-29.179V327.159h-76.029V666.681z"/>
		<path fill-rule="evenodd" clip-rule="evenodd" fill="#FFFFFD" d="M396.065,597.271c2.772-1.856,18.535-21.393,21.476-25.382
			c6.735-9.138,13.152-17.706,19.9-26.96c4.504-6.178,34.654-54.036,34.654-59.063V327.159h-76.03V597.271z"/>
		<path fill-rule="evenodd" clip-rule="evenodd" fill="#FFFFFD" d="M91.506,478.793c0,4.963,30.5,52.954,34.915,59.246
			c6.529,9.307,12.945,17.964,19.714,27.146c3.086,4.185,18.537,23.98,21.401,25.899V327.159H91.506V478.793z"/>
		<path fill-rule="evenodd" clip-rule="evenodd" fill="#E1171D" d="M255.058,243.604h24.312c14.937,0,26.521-9.676,26.521-24.757
			c0-17.104-11.665-26.525-28.731-26.525h-22.101V243.604z"/>
		<path fill-rule="evenodd" clip-rule="evenodd" fill="#E1171D" d="M76.035,243.604h13.261v-20.336h2.652
			c4.725,0,7.504,4.749,8.986,8.254c1.344,3.179,4.51,9.295,5.159,12.082h15.029c-1.905-3.601-4.235-8.778-5.889-12.678
			c-1.012-2.387-1.71-4.238-3.034-6.25c-0.951-1.446-3.63-4.389-3.896-5.387c3.903-1.042,7.515-6.444,7.515-11.494
			c0-7.467-6.724-15.031-13.261-15.031H76.035V243.604z"/>
		<polygon fill-rule="evenodd" clip-rule="evenodd" fill="#E1171D" points="434.081,243.604 448.226,243.604 452.646,233.879 
			473.724,233.935 477.4,243.604 491.988,243.604 468.56,192.323 455.298,192.323 		"/>
		<polygon fill-rule="evenodd" clip-rule="evenodd" fill="#E1171D" points="192.289,243.604 206.435,243.604 210.855,233.879 
			231.865,233.963 235.609,243.604 250.196,243.604 226.768,192.323 213.507,192.323 		"/>
		<polygon fill-rule="evenodd" clip-rule="evenodd" fill="#E1171D" points="304.545,243.597 318.909,243.517 322.247,233.879 
			343.464,233.879 348.327,243.604 362.996,243.567 340.37,192.323 325.143,192.421 		"/>
		<polygon fill-rule="evenodd" clip-rule="evenodd" fill="#E1171D" points="380.692,244.442 386.698,244.45 410.211,192.323 
			395.883,192.437 383.357,220.123 370.87,192.323 355.772,192.355 		"/>
		<polygon fill-rule="evenodd" clip-rule="evenodd" fill="#E1171D" points="168.465,244.489 175.34,244.419 198.92,192.323 
			184.493,192.394 172.398,220.174 159.829,192.323 144.549,192.323 		"/>
		<path fill-rule="evenodd" clip-rule="evenodd" fill="#E1171D" d="M288.652,281.624v2.652c0,8.511,9.618,16.357,18.565,16.357
			h3.094c8.33,0,17.682-8.109,17.682-16.357v-2.652c0-8.058-9.128-16.357-17.239-16.357h-2.652
			C298.251,265.267,288.652,272.668,288.652,281.624z"/>
		<path fill-rule="evenodd" clip-rule="evenodd" fill="#E1171D" d="M210.855,300.191h9.282v-20.336
			c3.26,2.184,16.687,20.336,18.566,20.336h7.072v-34.482h-9.282v19.451c-3.148-2.107-16.029-19.451-18.124-19.451h-7.515V300.191z"
			/>
		<path fill-rule="evenodd" clip-rule="evenodd" fill="#E1171D" d="M363.354,300.191h9.284v-20.777
			c2.709,1.985,16.931,20.777,18.564,20.777h7.072v-34.482h-9.282v19.451c-2.784-1.864-16.127-19.451-17.681-19.451h-7.958V300.191z
			"/>
		<path fill-rule="evenodd" clip-rule="evenodd" fill="#E1171D" d="M318.269,172.871h16.797c4.118,0,9.726-3.591,9.726-7.516v-4.421
			c0-2.126-3.053-4.78-5.305-5.305c1.581-0.928,3.094-2.202,3.094-5.305v-2.21c0-3.877-5.369-7.074-9.725-7.074h-14.587V172.871z"/>
		<rect x="415.073" y="192.323" fill-rule="evenodd" clip-rule="evenodd" fill="#E1171D" width="13.703" height="51.724"/>
		<rect x="126.426" y="192.765" fill-rule="evenodd" clip-rule="evenodd" fill="#E1171D" width="13.261" height="50.84"/>
		<path fill-rule="evenodd" clip-rule="evenodd" fill="#FFFFFD" d="M268.319,233.879h7.072c8.903,0,16.354-4.975,16.354-13.705
			v-4.863c0-7.385-7.4-12.821-15.028-12.821h-8.398V233.879z"/>
		<path fill-rule="evenodd" clip-rule="evenodd" fill="#E1171D" d="M251.08,282.066v3.979c0,7.819,10.18,14.588,19.007,14.588h2.21
			c5.568,0,8.831-2.71,12.377-3.537v-8.399c-3.32,0.773-7.291,3.979-11.494,3.979h-2.209c-5.63,0-10.609-4.188-10.609-9.726
			c0-5.162,4.83-9.726,9.725-9.726h1.768c6.75,0,8.25,2.575,12.376,3.536v-7.515c0-2.161-7.659-3.979-10.608-3.979h-2.21
			C260.746,265.267,251.08,271.702,251.08,282.066z"/>
		<path fill-rule="evenodd" clip-rule="evenodd" fill="#E1171D" d="M280.696,157.84c0,9.316,5.629,15.473,14.586,15.473h1.326
			c8.055,0,15.914-4.389,15.914-11.936v-20.336h-8.399v17.684c0,3.54-2.811,7.074-6.188,7.074h-0.884
			c-3.969,0-7.514-2.065-7.514-5.747v-19.01h-8.841V157.84z"/>
		<path fill-rule="evenodd" clip-rule="evenodd" fill="#E1171D" d="M217.485,155.188v3.094c0,8.191,8.841,15.031,17.239,15.031
			h1.769c3.23,0,11.935-1.983,11.935-4.421v-6.631c-4.017,0.936-5.213,3.537-11.493,3.537c-6.069,0-10.608-3.188-10.608-9.284
			v-0.884c0-4.283,5.5-7.515,10.167-7.515c6.716,0,7.271,2.111,11.493,3.094v-7.958c-2.52-0.587-6.082-2.652-9.283-2.652h-3.536
			C226.937,140.599,217.485,147.462,217.485,155.188z"/>
		<polygon fill-rule="evenodd" clip-rule="evenodd" fill="#E1171D" points="163.999,300.191 190.521,300.191 190.521,293.118 
			173.724,293.118 173.724,265.709 163.999,265.709 		"/>
		<polygon fill-rule="evenodd" clip-rule="evenodd" fill="#E1171D" points="333.297,300.191 359.818,300.191 359.818,293.118 
			342.58,293.118 342.58,265.709 333.297,265.709 		"/>
		<polygon fill-rule="evenodd" clip-rule="evenodd" fill="#E1171D" points="253.29,172.871 278.043,172.871 278.043,166.24 
			262.131,166.24 262.131,141.041 253.29,141.041 		"/>
		<rect x="194.5" y="265.709" fill-rule="evenodd" clip-rule="evenodd" fill="#E1171D" width="9.725" height="34.482"/>
		<path fill-rule="evenodd" clip-rule="evenodd" fill="#FFFFFD" d="M298.377,282.066v2.653c0,3.532,4.807,7.957,8.398,7.957h3.094
			c3.959,0,8.399-4.005,8.399-8.399v-2.652c0-5.184-4.482-8.399-9.725-8.399h-0.442
			C302.851,273.225,298.377,276.962,298.377,282.066z"/>
		<polygon fill-rule="evenodd" clip-rule="evenodd" fill="#FFFFFD" points="213.701,224.061 227.678,224.143 220.295,206.364 		"/>
		<polygon fill-rule="evenodd" clip-rule="evenodd" fill="#FFFFFD" points="455.535,224.077 469.532,224.115 462.018,206.502 		"/>
		<polygon fill-rule="evenodd" clip-rule="evenodd" fill="#FFFFFD" points="326.218,224.15 340.223,224.032 332.828,206.733 		"/>
		<path fill-rule="evenodd" clip-rule="evenodd" fill="#FFFFFD" d="M89.296,213.101h5.746c2.717,0,6.63-1.221,6.63-3.536v-2.653
			c0-3.286-3.273-4.421-6.63-4.421h-5.746V213.101z"/>
		<path fill-rule="evenodd" clip-rule="evenodd" fill="#FFFFFD" d="M327.109,166.24h3.536c2.273,0,5.304-0.501,5.304-2.653v-0.441
			c0-2.064-1.03-3.095-3.094-3.095h-5.746V166.24z"/>
		<path fill-rule="evenodd" clip-rule="evenodd" fill="#FFFFFD" d="M327.285,153.028h3.01c1.936,0,4.515-0.427,4.515-2.258v-0.377
			c0-1.756-0.877-2.634-2.634-2.634h-4.891V153.028z"/>
	</g>
</g>
</svg>
