<?xml version="1.0" encoding="utf-8"?>
<!-- Generator: Adobe Illustrator 16.0.0, SVG Export Plug-In . SVG Version: 6.00 Build 0)  -->
<!DOCTYPE svg PUBLIC "-//W3C//DTD SVG 1.1//EN" "http://www.w3.org/Graphics/SVG/1.1/DTD/svg11.dtd">
<svg version="1.1" id="Capa_1" xmlns="http://www.w3.org/2000/svg" xmlns:xlink="http://www.w3.org/1999/xlink" x="0px" y="0px"
	 width="555px" height="727px" viewBox="0 0 555 727" enable-background="new 0 0 555 727" xml:space="preserve">
<g>
	<g>
		<path fill-rule="evenodd" clip-rule="evenodd" fill="#009FE3" d="M6.046,75.187v349.361
			c12.683,65.877,81.889,192.322,271.955,294.086c37.737-19.808,241.104-129.227,272.229-294.086V74.875
			C435.866,100.93,355.403,81.273,277.996,9.972C198.594,82.785,126.049,100.487,6.046,75.187z"/>
		<path fill-rule="evenodd" clip-rule="evenodd" fill="#FFFFFF" d="M277.982,698.448c2.466,0,72.996-46.517,80.584-51.679
			c13.309-9.057,25.493-18.315,38.188-27.945c11.783-8.939,25.34-20.402,35.74-30.702c5.602-5.547,11.013-10.697,16.612-16.299
			c5.65-5.652,10.466-11.479,15.836-17.386c9.812-10.788,20.09-25.405,28.102-38.035c16.891-26.626,31.296-57.91,39.491-93.097
			H24.052c1.789,7.681,6.154,16.798,8.735,24.18c2.699,7.722,6.636,15.827,10.101,23.123c7.487,15.766,14.863,28.258,23.568,42.569
			c15.515,25.506,38.438,52.644,59.028,73.241c22.009,22.017,46.076,42.132,71.601,60.666c13.036,9.466,25.954,17.665,39.426,26.704
			C240.338,676.356,276.465,698.448,277.982,698.448z"/>
		<path fill-rule="evenodd" clip-rule="evenodd" fill="#FFFFFF" d="M106.005,101.583h-14.28c-11.953,0-24.193-0.932-35.104-2.148
			c-5.33-0.595-11.642-1.621-16.738-1.889c-5.178-0.272-11.423-2.062-16.453-2.174v158.999h509.415V95.683h-0.933
			c-4.823,0-10.71,2.031-15.831,2.174c-4.528,0.126-11.012,1.47-16.147,1.857c-10.865,0.823-22.116,2.179-33.832,2.179h-5.898
			c-42.525,0-74.476-8.302-104.801-20.62c-13.479-5.475-29.558-14.061-40.977-21.738c-6.498-4.368-12.336-8.165-18.567-12.791
			c-1.93-1.432-17.189-13.792-17.566-13.792c-0.53,0-15.033,11.753-16.945,13.172c-5.974,4.434-11.453,8.222-17.699,12.417
			c-12.664,8.504-24.651,14.419-38.818,21.413c-11.215,5.537-31.463,12.386-45.146,15.083
			C143.38,98.251,125.466,101.583,106.005,101.583z"/>
		<g>
			<polygon fill-rule="evenodd" clip-rule="evenodd" fill="#009FE3" points="264.961,178.247 260.481,178.509 258.373,178.773 
				255.21,179.037 253.628,179.3 252.312,179.563 249.676,179.828 248.622,180.091 246.25,180.354 245.196,180.618 244.142,180.882 
				242.297,181.146 241.243,181.409 239.398,181.672 238.607,181.936 237.026,182.2 235.973,182.463 235.181,182.726 
				233.601,182.99 233.073,183.253 231.492,183.517 230.702,183.78 229.911,184.044 228.594,184.308 227.803,184.571 
				226.749,184.834 225.958,185.098 224.904,185.361 224.113,185.625 223.322,185.889 222.269,186.152 221.741,186.416 
				220.687,186.679 220.16,186.943 219.37,187.206 218.315,187.47 217.788,187.733 216.734,187.997 216.207,188.26 215.68,188.524 
				214.626,188.788 214.099,189.052 213.044,189.314 212.518,189.578 211.727,189.842 211.2,190.105 210.673,190.369 
				209.619,190.632 209.091,190.896 208.301,191.16 207.774,191.423 207.51,191.687 206.456,191.951 205.929,192.214 
				205.138,192.477 204.611,192.741 203.821,193.004 203.294,193.268 203.03,193.531 202.24,193.795 201.712,194.058 
				200.922,194.322 200.395,194.585 200.131,194.849 199.341,195.113 198.813,195.376 198.023,195.64 197.759,195.903 
				197.232,196.167 196.705,196.43 196.179,196.694 195.388,196.957 195.124,197.221 194.333,197.484 193.806,197.748 
				193.542,198.012 192.752,198.275 192.488,198.539 191.698,198.802 191.434,199.066 190.908,199.329 190.38,199.593 
				189.854,199.856 189.326,200.119 189.063,200.383 188.272,200.647 188.008,200.91 187.745,201.174 186.955,201.438 
				186.427,201.701 185.9,201.964 185.637,202.228 185.11,202.492 184.583,202.755 184.319,203.019 183.792,203.282 
				183.265,203.545 182.738,203.809 182.475,204.073 181.947,204.336 181.42,204.6 181.157,204.863 180.629,205.127 
				180.366,205.391 180.103,205.654 179.576,205.918 179.048,206.181 178.521,206.445 178.258,206.708 177.994,206.972 
				177.467,207.235 176.94,207.499 176.413,207.762 176.149,208.025 175.622,208.29 175.358,208.553 175.096,208.816 
				174.568,209.08 174.305,209.344 173.777,209.607 173.25,209.871 172.987,210.134 172.459,210.398 172.196,210.661 
				171.933,210.924 171.406,211.188 171.142,211.452 170.615,211.715 170.352,211.979 169.824,212.243 169.561,212.506 
				169.297,212.77 168.77,213.033 168.507,213.297 167.98,213.561 167.98,214.087 167.453,214.087 167.189,214.351 166.662,214.614 
				166.398,214.877 166.135,215.141 165.608,215.405 165.345,215.668 164.817,215.932 164.554,216.195 164.291,216.459 
				164.027,216.723 163.5,216.986 163.236,217.249 162.972,217.513 162.709,217.776 162.182,218.041 161.918,218.303 
				161.655,218.567 161.391,218.831 160.864,219.095 160.601,219.358 160.337,219.622 159.811,219.885 159.811,220.412 
				159.283,220.412 159.02,220.676 158.756,220.939 158.492,221.203 158.229,221.466 157.702,221.729 157.438,221.993 
				157.175,222.257 156.911,222.521 156.647,222.784 156.121,223.047 155.857,223.311 155.593,223.575 155.33,223.838 
				155.066,224.102 154.54,224.366 154.54,224.892 154.012,224.892 154.012,225.419 153.485,225.419 153.222,225.683 
				152.958,225.946 152.694,226.21 152.431,226.473 152.167,226.737 151.904,227 151.64,227.265 151.113,227.527 150.85,227.792 
				150.587,228.054 150.323,228.318 150.323,228.845 149.795,228.845 149.532,229.108 149.269,229.372 149.005,229.636 
				148.741,229.899 148.478,230.163 148.215,230.427 147.951,230.69 147.687,230.953 147.424,231.217 147.16,231.48 
				146.897,231.745 146.37,232.008 146.37,232.534 145.843,232.534 145.579,233.062 145.315,233.325 145.051,233.589 
				144.789,233.853 144.525,234.116 144.262,234.38 143.998,234.643 143.734,234.907 143.471,235.17 143.207,235.434 
				142.944,235.697 142.68,235.96 142.68,236.488 142.153,236.488 141.889,236.751 141.626,237.015 141.363,237.278 
				141.099,237.806 140.835,238.069 140.572,238.333 140.309,238.596 140.045,238.859 139.782,239.123 139.518,239.387 
				139.254,239.65 138.991,239.914 138.727,240.177 138.463,240.705 138.2,240.968 137.936,241.231 137.673,241.495 137.41,241.759 
				137.146,242.022 136.883,242.286 136.619,242.813 136.355,243.076 136.092,243.34 135.828,243.604 135.565,243.867 
				135.301,244.394 135.038,244.658 134.774,244.921 134.51,245.185 134.247,245.448 134.247,245.975 133.72,245.975 
				133.456,246.502 133.193,246.766 132.93,247.029 132.666,247.556 132.402,247.82 132.139,248.084 131.875,248.347 
				131.612,248.874 131.348,249.138 131.084,249.401 130.821,249.665 130.558,250.192 130.294,250.455 130.031,250.719 
				129.767,250.982 129.503,251.51 129.24,251.773 128.976,252.3 128.712,252.564 128.449,252.827 128.186,253.354 127.922,253.617 
				127.922,254.145 127.395,254.145 127.395,254.936 126.868,254.936 126.604,255.463 126.341,255.727 126.078,255.989 
				125.814,256.516 125.55,256.78 125.287,257.307 125.023,257.57 124.76,258.098 124.76,258.625 124.232,258.625 123.969,259.152 
				123.706,259.416 123.442,259.942 123.178,260.47 122.916,260.733 122.651,261.26 122.388,261.524 122.125,261.788 
				121.861,262.315 121.597,262.578 121.334,263.105 121.07,263.632 120.807,264.159 120.543,264.422 120.279,264.686 
				120.017,265.214 119.752,265.74 119.489,266.268 119.225,266.531 118.962,266.794 118.698,267.321 118.435,267.585 
				118.171,268.112 117.908,268.64 117.644,268.903 117.38,269.43 117.117,269.958 116.854,270.484 116.59,270.747 116.326,271.274 
				116.063,271.802 115.8,272.065 115.536,272.592 115.272,273.119 115.009,273.91 114.746,274.173 114.482,274.437 
				114.218,275.227 113.954,275.491 113.691,276.018 113.428,276.545 113.164,277.073 112.9,277.599 112.637,277.863 
				112.374,278.653 112.11,278.917 111.846,279.708 111.583,279.971 111.319,280.498 111.056,281.289 110.792,281.553 
				110.529,282.343 110.265,282.87 110.001,283.134 109.739,283.924 109.475,284.188 109.211,284.978 108.948,285.505 
				108.684,286.296 108.421,286.56 108.157,287.086 107.894,287.877 107.63,288.404 107.366,289.195 107.103,289.458 
				106.839,290.249 106.575,290.776 106.313,291.304 106.048,292.094 105.785,292.621 105.522,293.675 105.258,293.938 
				104.995,294.465 104.731,295.256 104.467,295.783 104.204,296.837 103.94,297.365 103.677,297.892 103.413,298.682 
				103.149,299.209 102.886,300.263 102.623,300.791 102.359,301.845 102.095,302.372 101.832,302.899 101.569,303.953 
				101.305,304.48 101.042,305.534 100.778,306.324 100.514,306.852 100.25,307.906 99.987,308.433 99.724,309.75 99.46,310.278 
				99.196,311.333 98.933,312.123 98.67,312.913 98.406,314.231 98.143,314.758 97.879,316.339 97.616,316.866 97.352,317.657 
				97.088,318.975 96.825,319.765 96.561,321.346 96.298,322.138 96.034,323.191 95.771,324.772 95.507,325.563 95.243,327.408 
				94.98,328.462 94.717,330.307 94.453,331.361 94.189,332.415 93.926,334.787 93.663,335.841 93.399,338.476 93.135,339.794 
				92.872,341.375 92.608,344.538 92.345,346.646 92.081,351.126 91.817,354.025 91.817,374.58 92.081,377.479 92.345,381.96 
				92.608,384.067 92.872,387.23 93.135,388.812 93.399,390.129 93.663,392.765 93.926,393.818 94.189,396.19 94.453,397.244 
				94.717,398.299 94.98,400.144 95.243,401.197 95.507,403.043 95.771,403.833 96.034,405.414 96.298,406.469 96.561,407.259 
				96.825,408.84 97.088,409.631 97.352,410.948 97.616,411.739 97.879,412.267 98.143,413.848 98.406,414.374 98.67,415.692 
				98.933,416.483 99.196,417.273 99.46,418.327 99.724,418.854 99.987,420.172 100.25,420.699 100.514,421.753 100.778,422.28 
				101.042,423.071 101.305,424.126 101.569,424.652 101.832,425.706 102.095,426.233 102.359,426.761 102.623,427.814 
				102.886,428.343 103.149,429.396 103.413,429.923 103.677,430.714 103.94,431.241 104.204,431.769 104.467,432.822 
				104.731,433.35 104.995,434.141 105.258,434.667 105.522,434.931 105.785,435.984 106.048,436.512 106.313,437.302 
				106.575,437.829 106.839,438.356 107.103,439.146 107.366,439.411 107.63,440.201 107.894,440.729 108.157,441.52 
				108.421,442.046 108.684,442.31 108.948,443.1 109.211,443.627 109.475,444.418 109.739,444.682 110.001,445.472 
				110.265,445.735 110.529,446.262 110.792,447.053 111.056,447.316 111.319,448.107 111.583,448.635 111.846,448.898 
				112.11,449.688 112.374,449.952 112.637,450.742 112.9,451.006 113.164,451.533 113.428,452.061 113.691,452.588 
				113.954,453.114 114.218,453.379 114.482,454.168 114.746,454.432 115.009,454.695 115.272,455.486 115.536,456.014 
				115.8,456.541 116.063,456.804 116.326,457.331 116.59,457.858 116.854,458.122 117.117,458.648 117.38,459.176 117.644,459.703 
				117.908,459.966 118.171,460.493 118.435,461.021 118.698,461.284 118.962,461.812 119.225,462.074 119.489,462.338 
				119.752,462.866 120.017,463.393 120.279,463.919 120.543,464.184 120.807,464.446 121.07,464.974 121.334,465.501 
				121.597,466.027 121.861,466.291 122.125,466.818 122.388,467.082 122.651,467.346 122.916,467.872 123.178,468.136 
				123.442,468.663 123.706,469.19 123.969,469.454 124.232,469.981 124.76,469.981 124.76,470.508 125.023,471.035 
				125.287,471.298 125.55,471.825 125.814,472.089 126.078,472.616 126.341,472.88 126.604,473.144 126.868,473.67 127.395,473.67 
				127.395,474.461 127.922,474.461 127.922,474.988 128.186,475.252 128.449,475.778 128.712,476.042 128.976,476.306 
				129.24,476.833 129.503,477.097 129.767,477.623 130.031,477.888 130.294,478.15 130.558,478.413 130.821,478.941 
				131.084,479.205 131.348,479.469 131.612,479.731 131.875,480.259 132.139,480.522 132.402,480.785 132.666,481.05 
				132.93,481.576 133.193,481.84 133.456,482.104 133.72,482.631 134.247,482.631 134.247,483.158 134.51,483.422 134.774,483.685 
				135.038,483.948 135.301,484.212 135.565,484.738 135.828,485.002 136.092,485.266 136.355,485.529 136.619,485.793 
				136.883,486.32 137.146,486.584 137.41,486.847 137.673,487.111 137.936,487.374 138.2,487.638 138.463,487.901 138.727,488.429 
				138.991,488.691 139.254,488.955 139.518,489.219 139.782,489.482 140.045,489.746 140.309,490.01 140.572,490.273 
				140.835,490.537 141.099,490.801 141.363,491.327 141.626,491.591 141.889,491.854 142.153,492.117 142.68,492.117 
				142.68,492.645 142.944,492.908 143.207,493.172 143.471,493.436 143.734,493.699 143.998,493.963 144.262,494.227 
				144.525,494.489 144.789,494.754 145.051,495.018 145.315,495.281 145.579,495.544 145.843,496.071 146.37,496.071 
				146.37,496.598 146.897,496.861 147.16,497.125 147.424,497.389 147.687,497.652 147.951,497.916 148.215,498.18 
				148.478,498.443 148.741,498.706 149.005,498.97 149.269,499.233 149.532,499.497 149.795,499.761 150.323,499.761 
				150.323,500.287 150.587,500.551 150.85,500.814 151.113,501.078 151.64,501.342 151.904,501.605 152.167,501.868 
				152.431,502.132 152.694,502.396 152.958,502.659 153.222,502.923 153.485,503.187 154.012,503.187 154.012,503.713 
				154.54,503.713 154.54,504.24 155.066,504.504 155.33,504.768 155.593,505.031 155.857,505.295 156.121,505.559 156.647,505.822 
				156.911,506.085 157.175,506.349 157.438,506.612 157.702,506.876 158.229,507.14 158.492,507.403 158.756,507.667 
				159.02,507.931 159.283,508.193 159.811,508.193 159.811,508.721 160.337,508.984 160.601,509.248 160.864,509.511 
				161.391,509.775 161.655,510.038 161.918,510.302 162.182,510.565 162.709,510.829 162.972,511.093 163.236,511.356 
				163.5,511.62 164.027,511.883 164.291,512.146 164.554,512.41 164.817,512.675 165.345,512.937 165.608,513.201 166.135,513.464 
				166.398,513.728 166.662,513.991 167.189,514.255 167.453,514.519 167.98,514.519 167.98,515.046 168.507,515.31 168.77,515.573 
				169.297,515.836 169.561,516.1 169.824,516.363 170.352,516.627 170.615,516.89 171.142,517.154 171.406,517.417 
				171.933,517.681 172.196,517.944 172.459,518.208 172.987,518.472 173.25,518.735 173.777,518.999 174.305,519.263 
				174.568,519.525 175.096,519.789 175.358,520.053 175.622,520.316 176.149,520.58 176.413,520.844 176.94,521.106 
				177.467,521.371 177.994,521.634 178.258,521.897 178.521,522.161 179.048,522.425 179.576,522.688 180.103,522.952 
				180.366,523.216 180.629,523.479 181.157,523.742 181.42,524.006 181.947,524.27 182.475,524.532 182.738,524.797 
				183.265,525.061 183.792,525.324 184.319,525.587 184.583,525.851 185.11,526.114 185.637,526.378 185.9,526.642 
				186.427,526.904 186.955,527.168 187.745,527.432 188.008,527.695 188.272,527.959 189.063,528.223 189.326,528.486 
				189.854,528.749 190.38,529.013 190.908,529.276 191.434,529.54 191.698,529.804 192.488,530.067 192.752,530.33 
				193.542,530.594 193.806,530.857 194.333,531.121 195.124,531.385 195.388,531.648 196.179,531.912 196.705,532.176 
				197.232,532.439 197.759,532.702 198.023,532.967 198.813,533.229 199.341,533.493 200.131,533.757 200.395,534.02 
				200.922,534.283 201.712,534.548 202.24,534.811 203.03,535.074 203.294,535.338 203.821,535.602 204.611,535.865 
				205.138,536.129 205.929,536.393 206.456,536.655 207.51,536.92 207.774,537.183 208.301,537.446 209.091,537.71 
				209.619,537.974 210.673,538.236 211.2,538.5 211.727,538.764 212.518,539.027 213.044,539.291 214.099,539.555 214.626,539.818 
				215.68,540.082 216.207,540.346 216.734,540.608 217.788,540.872 218.315,541.136 219.37,541.399 220.16,541.662 
				220.687,541.927 221.741,542.189 222.269,542.453 223.322,542.717 224.113,542.98 224.904,543.244 225.958,543.508 
				226.749,543.771 227.803,544.034 228.594,544.298 229.911,544.562 230.702,544.825 231.492,545.089 233.073,545.353 
				233.601,545.616 235.181,545.88 235.973,546.144 237.026,546.406 238.607,546.67 239.398,546.934 241.243,547.197 
				242.297,547.461 244.142,547.725 245.196,547.988 246.25,548.251 248.622,548.515 249.676,548.778 252.312,549.042 
				253.628,549.306 255.21,549.569 258.373,549.832 260.481,550.096 264.961,550.359 267.86,550.623 288.415,550.623 
				291.314,550.359 295.795,550.096 297.903,549.832 301.065,549.569 302.646,549.306 303.964,549.042 306.6,548.778 
				307.653,548.515 310.025,548.251 311.079,547.988 312.134,547.725 313.979,547.461 315.032,547.197 316.878,546.934 
				317.668,546.67 319.249,546.406 320.303,546.144 321.094,545.88 322.675,545.616 323.203,545.353 324.783,545.089 
				325.574,544.825 326.365,544.562 327.683,544.298 328.473,544.034 329.527,543.771 330.318,543.508 331.371,543.244 
				332.162,542.98 332.953,542.717 334.008,542.453 334.534,542.189 335.588,541.927 336.115,541.662 336.906,541.399 
				337.96,541.136 338.487,540.872 339.542,540.608 340.069,540.346 340.595,540.082 341.65,539.818 342.177,539.555 
				343.231,539.291 343.759,539.027 344.549,538.764 345.076,538.5 345.603,538.236 346.657,537.974 347.184,537.71 
				347.975,537.446 348.502,537.183 348.766,536.92 349.819,536.655 350.347,536.393 351.138,536.129 351.664,535.865 
				352.455,535.602 352.981,535.338 353.245,535.074 354.036,534.811 354.563,534.548 355.354,534.283 355.881,534.02 
				356.145,533.757 356.935,533.493 357.462,533.229 358.253,532.967 358.517,532.702 359.043,532.439 359.57,532.176 
				360.098,531.912 360.889,531.648 361.151,531.385 361.942,531.121 362.469,530.857 362.732,530.594 363.523,530.33 
				363.787,530.067 364.578,529.804 364.841,529.54 365.368,529.276 365.896,529.013 366.422,528.749 366.949,528.486 
				367.213,528.223 368.003,527.959 368.268,527.695 368.53,527.432 369.321,527.168 369.849,526.904 370.375,526.642 
				370.639,526.378 371.166,526.114 371.693,525.851 371.957,525.587 372.483,525.324 373.011,525.061 373.537,524.797 
				373.802,524.532 374.328,524.27 374.855,524.006 375.119,523.742 375.646,523.479 375.91,523.216 376.173,522.952 376.7,522.688 
				377.228,522.425 377.754,522.161 378.018,521.897 378.281,521.634 378.809,521.371 379.336,521.106 379.863,520.844 
				380.126,520.58 380.653,520.316 380.917,520.053 381.181,519.789 381.707,519.525 381.971,519.263 382.499,518.999 
				383.025,518.735 383.288,518.472 383.815,518.208 384.079,517.944 384.343,517.681 384.87,517.417 385.134,517.154 
				385.66,516.89 385.924,516.627 386.451,516.363 386.715,516.1 386.978,515.836 387.505,515.573 387.769,515.31 388.296,515.046 
				388.296,514.519 388.823,514.519 389.087,514.255 389.613,513.991 389.877,513.728 390.141,513.464 390.668,513.201 
				390.931,512.937 391.458,512.675 391.722,512.41 391.985,512.146 392.249,511.883 392.776,511.62 393.04,511.356 
				393.303,511.093 393.566,510.829 394.094,510.565 394.356,510.302 394.62,510.038 394.884,509.775 395.411,509.511 
				395.675,509.248 395.938,508.984 396.466,508.721 396.466,508.193 396.993,508.193 397.256,507.931 397.52,507.667 
				397.783,507.403 398.047,507.14 398.574,506.876 398.837,506.612 399.101,506.349 399.364,506.085 399.628,505.822 
				400.154,505.559 400.419,505.295 400.683,505.031 400.946,504.768 401.209,504.504 401.735,504.24 401.735,503.713 
				402.263,503.713 402.263,503.187 402.79,503.187 403.054,502.923 403.317,502.659 403.581,502.396 403.845,502.132 
				404.107,501.868 404.372,501.605 404.635,501.342 405.162,501.078 405.426,500.814 405.689,500.551 405.953,500.287 
				405.953,499.761 406.48,499.761 406.744,499.497 407.007,499.233 407.271,498.97 407.534,498.706 407.798,498.443 
				408.062,498.18 408.324,497.916 408.588,497.652 408.852,497.389 409.115,497.125 409.379,496.861 409.906,496.598 
				409.906,496.071 410.433,496.071 410.696,495.544 410.96,495.281 411.224,495.018 411.486,494.754 411.75,494.489 
				412.014,494.227 412.277,493.963 412.541,493.699 412.805,493.436 413.068,493.172 413.332,492.908 413.596,492.645 
				413.596,492.117 414.123,492.117 414.386,491.854 414.649,491.591 414.913,491.327 415.177,490.801 415.44,490.537 
				415.704,490.273 415.967,490.01 416.23,489.746 416.494,489.482 416.758,489.219 417.021,488.955 417.285,488.691 
				417.549,488.429 417.813,487.901 418.076,487.638 418.339,487.374 418.603,487.111 418.866,486.847 419.129,486.584 
				419.394,486.32 419.656,485.793 419.92,485.529 420.184,485.266 420.447,485.002 420.711,484.738 420.975,484.212 
				421.238,483.948 421.501,483.685 421.766,483.422 422.028,483.158 422.028,482.631 422.556,482.631 422.819,482.104 
				423.082,481.84 423.346,481.576 423.609,481.05 423.873,480.785 424.137,480.522 424.4,480.259 424.664,479.731 424.928,479.469 
				425.191,479.205 425.454,478.941 425.718,478.413 425.981,478.15 426.245,477.888 426.509,477.623 426.771,477.097 
				427.036,476.833 427.3,476.306 427.563,476.042 427.826,475.778 428.09,475.252 428.354,474.988 428.354,474.461 
				428.881,474.461 428.881,473.67 429.407,473.67 429.671,473.144 429.935,472.88 430.198,472.616 430.462,472.089 
				430.725,471.825 430.989,471.298 431.252,471.035 431.517,470.508 431.517,469.981 432.043,469.981 432.306,469.454 
				432.57,469.19 432.834,468.663 433.097,468.136 433.36,467.872 433.624,467.346 433.888,467.082 434.151,466.818 
				434.415,466.291 434.679,466.027 434.942,465.501 435.205,464.974 435.469,464.446 435.732,464.184 435.996,463.919 
				436.26,463.393 436.523,462.866 436.787,462.338 437.05,462.074 437.313,461.812 437.577,461.284 437.841,461.021 
				438.104,460.493 438.368,459.966 438.632,459.703 438.896,459.176 439.158,458.648 439.422,458.122 439.686,457.858 
				439.948,457.331 440.213,456.804 440.476,456.541 440.739,456.014 441.003,455.486 441.267,454.695 441.53,454.432 
				441.794,454.168 442.058,453.379 442.321,453.114 442.585,452.588 442.848,452.061 443.111,451.533 443.375,451.006 
				443.639,450.742 443.901,449.952 444.165,449.688 444.43,448.898 444.692,448.635 444.956,448.107 445.22,447.316 
				445.483,447.053 445.747,446.262 446.011,445.735 446.274,445.472 446.537,444.682 446.801,444.418 447.064,443.627 
				447.328,443.1 447.592,442.31 447.855,442.046 448.119,441.52 448.382,440.729 448.646,440.201 448.909,439.411 449.173,439.146 
				449.437,438.356 449.7,437.829 449.964,437.302 450.227,436.512 450.49,435.984 450.754,434.931 451.018,434.667 
				451.281,434.141 451.545,433.35 451.809,432.822 452.071,431.769 452.336,431.241 452.599,430.714 452.863,429.923 
				453.126,429.396 453.39,428.343 453.652,427.814 453.916,426.761 454.18,426.233 454.443,425.706 454.707,424.652 
				454.971,424.126 455.234,423.071 455.498,422.28 455.762,421.753 456.025,420.699 456.289,420.172 456.551,418.854 
				456.815,418.327 457.079,417.273 457.343,416.483 457.606,415.692 457.869,414.374 458.133,413.848 458.396,412.267 
				458.66,411.739 458.924,410.948 459.188,409.631 459.451,408.84 459.715,407.259 459.978,406.469 460.241,405.414 
				460.505,403.833 460.769,403.043 461.032,401.197 461.295,400.144 461.559,398.299 461.822,397.244 462.086,396.19 
				462.35,393.818 462.613,392.765 462.877,390.129 463.141,388.812 463.403,387.23 463.668,384.067 463.932,381.96 
				464.194,377.479 464.458,374.58 464.458,354.025 464.194,351.126 463.932,346.646 463.668,344.538 463.403,341.375 
				463.141,339.794 462.877,338.476 462.613,335.841 462.35,334.787 462.086,332.415 461.822,331.361 461.559,330.307 
				461.295,328.462 461.032,327.408 460.769,325.563 460.505,324.772 460.241,323.191 459.978,322.138 459.715,321.346 
				459.451,319.765 459.188,318.975 458.924,317.657 458.66,316.866 458.396,316.339 458.133,314.758 457.869,314.231 
				457.606,312.913 457.343,312.123 457.079,311.333 456.815,310.278 456.551,309.75 456.289,308.433 456.025,307.906 
				455.762,306.852 455.498,306.324 455.234,305.534 454.971,304.48 454.707,303.953 454.443,302.899 454.18,302.372 
				453.916,301.845 453.652,300.791 453.39,300.263 453.126,299.209 452.863,298.682 452.599,297.892 452.336,297.365 
				452.071,296.837 451.809,295.783 451.545,295.256 451.281,294.465 451.018,293.938 450.754,293.675 450.49,292.621 
				450.227,292.094 449.964,291.304 449.7,290.776 449.437,290.249 449.173,289.458 448.909,289.195 448.646,288.404 
				448.382,287.877 448.119,287.086 447.855,286.56 447.592,286.296 447.328,285.505 447.064,284.978 446.801,284.188 
				446.537,283.924 446.274,283.134 446.011,282.87 445.747,282.343 445.483,281.553 445.22,281.289 444.956,280.498 
				444.692,279.971 444.43,279.708 444.165,278.917 443.901,278.653 443.639,277.863 443.375,277.599 443.111,277.073 
				442.848,276.545 442.585,276.018 442.321,275.491 442.058,275.227 441.794,274.437 441.53,274.173 441.267,273.91 
				441.003,273.119 440.739,272.592 440.476,272.065 440.213,271.802 439.948,271.274 439.686,270.747 439.422,270.484 
				439.158,269.958 438.896,269.43 438.632,268.903 438.368,268.64 438.104,268.112 437.841,267.585 437.577,267.321 
				437.313,266.794 437.05,266.531 436.787,266.268 436.523,265.74 436.26,265.214 435.996,264.686 435.732,264.422 
				435.469,264.159 435.205,263.632 434.942,263.105 434.679,262.578 434.415,262.315 434.151,261.788 433.888,261.524 
				433.624,261.26 433.36,260.733 433.097,260.47 432.834,259.942 432.57,259.416 432.306,259.152 432.043,258.625 431.517,258.625 
				431.517,258.098 431.252,257.57 430.989,257.307 430.725,256.78 430.462,256.516 430.198,255.989 429.935,255.727 
				429.671,255.463 429.407,254.936 428.881,254.936 428.881,254.145 428.354,254.145 428.354,253.617 428.09,253.354 
				427.826,252.827 427.563,252.564 427.3,252.3 427.036,251.773 426.771,251.51 426.509,250.982 426.245,250.719 425.981,250.455 
				425.718,250.192 425.454,249.665 425.191,249.401 424.928,249.138 424.664,248.874 424.4,248.347 424.137,248.084 
				423.873,247.82 423.609,247.556 423.346,247.029 423.082,246.766 422.819,246.502 422.556,245.975 422.028,245.975 
				422.028,245.448 421.766,245.185 421.501,244.921 421.238,244.658 420.975,244.394 420.711,243.867 420.447,243.604 
				420.184,243.34 419.92,243.076 419.656,242.813 419.394,242.286 419.129,242.022 418.866,241.759 418.603,241.495 
				418.339,241.231 418.076,240.968 417.813,240.705 417.549,240.177 417.285,239.914 417.021,239.65 416.758,239.387 
				416.494,239.123 416.23,238.859 415.967,238.596 415.704,238.333 415.44,238.069 415.177,237.806 414.913,237.278 
				414.649,237.015 414.386,236.751 414.123,236.488 413.596,236.488 413.596,235.96 413.332,235.697 413.068,235.434 
				412.805,235.17 412.541,234.907 412.277,234.643 412.014,234.38 411.75,234.116 411.486,233.853 411.224,233.589 410.96,233.325 
				410.696,233.062 410.433,232.534 409.906,232.534 409.906,232.008 409.379,231.745 409.115,231.48 408.852,231.217 
				408.588,230.953 408.324,230.69 408.062,230.427 407.798,230.163 407.534,229.899 407.271,229.636 407.007,229.372 
				406.744,229.108 406.48,228.845 405.953,228.845 405.953,228.318 405.689,228.054 405.426,227.792 405.162,227.527 
				404.635,227.265 404.372,227 404.107,226.737 403.845,226.473 403.581,226.21 403.317,225.946 403.054,225.683 402.79,225.419 
				402.263,225.419 402.263,224.892 401.735,224.892 401.735,224.366 401.209,224.102 400.946,223.838 400.683,223.575 
				400.419,223.311 400.154,223.047 399.628,222.784 399.364,222.521 399.101,222.257 398.837,221.993 398.574,221.729 
				398.047,221.466 397.783,221.203 397.52,220.939 397.256,220.676 396.993,220.412 396.466,220.412 396.466,219.885 
				395.938,219.622 395.675,219.358 395.411,219.095 394.884,218.831 394.62,218.567 394.356,218.303 394.094,218.041 
				393.566,217.776 393.303,217.513 393.04,217.249 392.776,216.986 392.249,216.723 391.985,216.459 391.722,216.195 
				391.458,215.932 390.931,215.668 390.668,215.405 390.141,215.141 389.877,214.877 389.613,214.614 389.087,214.351 
				388.823,214.087 388.296,214.087 388.296,213.561 387.769,213.297 387.505,213.033 386.978,212.77 386.715,212.506 
				386.451,212.243 385.924,211.979 385.66,211.715 385.134,211.452 384.87,211.188 384.343,210.924 384.079,210.661 
				383.815,210.398 383.288,210.134 383.025,209.871 382.499,209.607 381.971,209.344 381.707,209.08 381.181,208.816 
				380.917,208.553 380.653,208.29 380.126,208.025 379.863,207.762 379.336,207.499 378.809,207.235 378.281,206.972 
				378.018,206.708 377.754,206.445 377.228,206.181 376.7,205.918 376.173,205.654 375.91,205.391 375.646,205.127 
				375.119,204.863 374.855,204.6 374.328,204.336 373.802,204.073 373.537,203.809 373.011,203.545 372.483,203.282 
				371.957,203.019 371.693,202.755 371.166,202.492 370.639,202.228 370.375,201.964 369.849,201.701 369.321,201.438 
				368.53,201.174 368.268,200.91 368.003,200.647 367.213,200.383 366.949,200.119 366.422,199.856 365.896,199.593 
				365.368,199.329 364.841,199.066 364.578,198.802 363.787,198.539 363.523,198.275 362.732,198.012 362.469,197.748 
				361.942,197.484 361.151,197.221 360.889,196.957 360.098,196.694 359.57,196.43 359.043,196.167 358.517,195.903 
				358.253,195.64 357.462,195.376 356.935,195.113 356.145,194.849 355.881,194.585 355.354,194.322 354.563,194.058 
				354.036,193.795 353.245,193.531 352.981,193.268 352.455,193.004 351.664,192.741 351.138,192.477 350.347,192.214 
				349.819,191.951 348.766,191.687 348.502,191.423 347.975,191.16 347.184,190.896 346.657,190.632 345.603,190.369 
				345.076,190.105 344.549,189.842 343.759,189.578 343.231,189.314 342.177,189.052 341.65,188.788 340.595,188.524 
				340.069,188.26 339.542,187.997 338.487,187.733 337.96,187.47 336.906,187.206 336.115,186.943 335.588,186.679 
				334.534,186.416 334.008,186.152 332.953,185.889 332.162,185.625 331.371,185.361 330.318,185.098 329.527,184.834 
				328.473,184.571 327.683,184.308 326.365,184.044 325.574,183.78 324.783,183.517 323.203,183.253 322.675,182.99 
				321.094,182.726 320.303,182.463 319.249,182.2 317.668,181.936 316.878,181.672 315.032,181.409 313.979,181.146 
				312.134,180.882 311.079,180.618 310.025,180.354 307.653,180.091 306.6,179.828 303.964,179.563 302.646,179.3 301.065,179.037 
				297.903,178.773 295.795,178.509 291.314,178.247 288.415,177.983 267.86,177.983 			"/>
			<path fill-rule="evenodd" clip-rule="evenodd" fill="#FDFEFF" d="M107.366,357.714v10.806c0,26.687,7.675,48.685,15.703,67.574
				c7.534,17.726,21.74,36.412,34.435,49.106c6.99,6.99,14.432,13.316,22.595,19.044c8.771,6.153,16.452,10.138,26.446,15.192
				c16.141,8.163,43.651,15.638,67.903,15.638h7.379c33.448,0,62.617-11.55,83.891-23.895c10.281-5.968,22.579-15.221,30.682-23.344
				c4.11-4.12,9.621-9.319,12.979-13.901c1.284-1.752,11.596-14.52,11.596-15.549c0-1.132-7.714-5.582-9.066-6.483
				c-0.91-0.607-9.296-6.167-9.381-6.167c-0.725,0-8.711,11.401-10.079,12.849c-3.647,3.86-7.092,8.605-11.171,12.021
				c-2.018,1.69-3.875,4.021-6,5.595c-2.075,1.538-4.393,3.503-6.411,5.185c-4.159,3.468-9.022,6.552-13.723,9.469
				c-4.905,3.043-9.57,5.36-14.99,7.938c-2.729,1.298-5.344,2.227-8.079,3.517c-2.716,1.281-5.855,1.893-8.612,2.983
				c-3.581,1.418-14.268,4.26-18.468,4.723c-3.398,0.375-6.866,1.066-10.046,1.55c-1.172,0.179-4.345,0.33-5.478,0.32
				c-2.434-0.021-3.189,0.526-5.271,0.526h-7.906c-10.366,0-23.713-1.822-32.153-3.95c-4.979-1.255-9.499-2.564-13.995-4.19
				c-4.947-1.789-8.454-3.231-13.034-5.149c-7.12-2.98-17.556-8.753-23.232-13.135c-4.908-3.789-16.662-12.081-19.836-16.532
				c-0.591-0.828-3.468-3.601-4.416-4.545c-1.536-1.532-2.735-3.172-4.218-4.742c-2.547-2.695-5.829-7.139-7.975-10.211
				c-4.178-5.982-10.67-15.933-13.4-22.966c-0.814-2.096-1.825-4.055-2.755-6.206c-0.961-2.223-1.619-4.509-2.555-6.669
				c-1.575-3.636-3.154-9.893-4.155-14.029c-2.314-9.562-4.275-20.347-4.275-32.093v-7.642c0-43.029,21.932-79.516,43.549-101.133
				c21.844-21.844,58.35-43.022,101.923-43.022h7.378c27.944,0,58.048,11.99,74.845,23.191
				c10.599,7.067,18.083,13.208,26.946,22.071c3.913,3.913,7.956,8.745,11.31,13.198c0.978,1.297,9.822,14.539,9.972,14.539
				c1.561,0,16.466-10.361,19.501-11.069c-0.175-2.108-9.739-15.147-11.486-17.501c-4.392-5.919-8.802-10.174-13.383-15.606
				c-3.065-3.634-11.323-10.963-15.188-13.802c-5.801-4.26-10.748-8.172-17.074-12.178c-22.443-14.213-53.824-25.771-90.449-25.771
				h-3.689c-23.171,0-51.847,7.649-67.291,15.459c-9.095,4.6-18.644,9.101-26.336,15.04c-8.315,6.419-15.359,11.417-22.791,18.848
				c-14.58,14.581-24.605,29.076-34.325,48.425C116.104,306.171,107.366,335.124,107.366,357.714z"/>
			<path fill-rule="evenodd" clip-rule="evenodd" fill="#FDFEFF" d="M288.152,478.15c1.792-0.039,13.655-2.92,15.646-3.591
				c2.466-0.832,5.315-1.189,7.624-2.128c2.285-0.928,4.884-1.691,7.219-2.531c8.458-3.043,18.883-8.634,25.426-13.578
				c6.69-5.057,15.406-12.107,20.246-18.756c2.742-3.768,5.619-6.989,8.381-11.121c1.262-1.89,6.761-10.585,7.1-12.202
				l-20.224-10.41c-5.722,10.813-11.544,18.245-19.831,26.552c-3.546,3.555-8.696,7.377-13.055,10.137
				c-2.435,1.541-12.774,7.351-15.605,7.586v-72.473h42.957v-22.928h-42.957v-72.472c3.633,0.846,12.481,5.72,15.501,7.691
				c2.253,1.473,4.798,3.071,6.827,4.768c2.003,1.672,4.307,3.832,6.293,5.303c4.332,3.209,18.423,21.355,19.856,26.75
				l20.307-10.516c-9.534-18.017-19.855-30.204-35.732-42.011c-8.223-6.114-15.727-9.173-25.408-13.596
				c-3.341-1.526-10.974-3.833-14.814-4.687c-2.677-0.595-5.303-1.249-7.847-1.904c-1.767-0.457-6.327-1.71-7.909-1.841V478.15z"/>
			<path fill-rule="evenodd" clip-rule="evenodd" fill="#FDFEFF" d="M165.345,362.721v1.582c0,17.473,4.288,33.176,9.571,45.508
				c2.818,6.576,5.977,12.337,9.72,17.951c1.733,2.601,3.76,5.631,5.813,7.892c0.95,1.046,2.294,2.624,3.144,3.708
				c1.179,1.505,2.355,2.352,3.422,3.693c3.462,4.354,10.081,9.248,14.641,12.767c5.292,4.085,11.128,7.146,17.375,10.296
				c4.482,2.259,15.02,6.508,20.182,7.489c3.681,0.699,7.274,1.746,11.11,2.594c3.022,0.669,9.059,1.989,11.753,2.213v-117.8
				h-45.327v23.191h22.4v65.885c-6.343-1.478-19.26-8.628-23.911-12.194c-7.162-5.491-13.019-10.646-18.409-17.958
				c-9.581-12.998-18.557-31.764-18.557-54.18v-5.27c0-24.201,12.666-46.798,24.838-58.967c7.239-7.237,14.866-12.536,24.532-17.37
				c4.726-2.364,9.501-4.283,14.899-5.92c2.736-0.83,5.249-1.535,8.411-2.131c1.069-0.201,7.962-1.51,7.962-2.579v-22.137
				c-11.787,0.263-32.999,8.063-41.464,12.297c-12.852,6.429-21.587,12.937-31.206,22.555
				C179.808,302.271,165.345,329.866,165.345,362.721z"/>
		</g>
	</g>
</g>
</svg>
