<?xml version="1.0" encoding="utf-8"?>
<!-- Generator: Adobe Illustrator 19.1.0, SVG Export Plug-In . SVG Version: 6.00 Build 0)  -->
<svg version="1.1" id="Capa_1" xmlns="http://www.w3.org/2000/svg" xmlns:xlink="http://www.w3.org/1999/xlink" x="0px" y="0px"
	 viewBox="0 43 612 707" style="enable-background:new 0 43 612 707;" xml:space="preserve">
<style type="text/css">
	.st0{fill:#FFDD00;}
	.st1{fill:#034EA2;}
	.st2{fill:#FFED00;}
</style>
<g>
	<path class="st0" d="M8.4,170.1v19.3c0.3,0.4,0.6,23.3,0.7,25.7c0.1,4.4,0.7,8.6,0.6,12.5c0,4.8,0.7,8.8,0.6,12.8
		c0,7.4,1.1,17.6,1.9,24.7c0.9,7.8,1.4,16.3,2.8,23.9c1.4,7.6,1.5,16,3.3,23c1.8,7,2,15.6,4,22.7c1,3.4,1.2,7.7,2.1,11.1
		c0.9,3.6,1.4,7.4,2.4,11c0.8,2.8,1.7,8.3,2.6,10.6c0.5,1.1,2.5,9.5,2.7,10.8c0.2,1.4,2.1,8.6,2.8,10.4c1.1,3.2,2.3,6.7,3,10.1
		c1.3,5.9,4.5,14.1,6.5,20.2c4.2,13.2,9.6,26.2,14.7,38.6c2.6,6.4,5.6,12.3,8,18.3c2.2,5.5,5.7,13.1,8.6,18.1
		c1.3,2.2,3.5,6.4,4.5,8.7c1.3,3.1,3.3,5.9,4.6,8.8c1.1,2.5,3.3,5.9,4.8,8.4c1.8,3,3.2,5.6,5,8.5c3.4,5.4,6.8,11,9.9,16.4
		c3.2,5.6,7.3,10.6,10.7,16c6.7,10.6,14.9,20.9,22.5,30.8c3.3,4.4,8.2,10.8,11.8,14.5c2,2,4,4.9,6,7.2c2,2.2,4.6,4.9,6.3,7.2
		c1.7,2.3,4.4,4.8,6.4,6.8c2.1,2.1,4.5,4.8,6.4,7.1c4,4.7,8.9,8.9,13.2,13.4c4.4,4.7,9.2,8.3,13.6,12.7c2.3,2.4,4.3,4.2,6.7,6.4
		c2.2,2,4.9,4.7,7.1,6.4c10,7.8,18.9,16.7,29.3,24c4.9,3.4,9.9,7.9,14.8,11.5c2.6,1.9,5.1,3.7,7.7,5.4c2.6,1.7,5.2,4.1,7.9,5.6
		c2.6,1.5,5.3,3.7,7.8,5.3c2.7,1.8,5.3,3.6,8.1,5.4c4.6,3,12.2,7.4,16,10.7h0.6c3.6-3.2,11.3-7.7,15.8-10.5
		c4.9-3.1,11.2-7.3,15.9-10.8c5-3.8,10.5-7.5,15.5-11.1c5.2-3.6,10-7.9,15-11.6c5.1-3.8,9.6-7.9,14.6-11.7
		c4.2-3.2,10.8-8.6,14.4-12.2c4.4-4.4,9.4-8.2,14-12.7c4.5-4.5,9.1-8.5,13.6-13c35.1-35.1,67.5-74.8,93.3-119.3
		c3.3-5.7,6.2-11.1,9.5-16.8c3-5.2,6.8-12,9.2-17.5c1.3-3,2.8-5.7,4.3-8.9c1.4-3,2.8-6.1,4.3-9.2c3-6,5.2-12.6,8.2-18.5
		c2.6-5.1,5.3-13.2,7.4-18.9c2.3-6.3,4.6-13.1,7.1-19.5c2.3-5.9,4.7-14,6.4-20.2c2-7.1,4-13.5,5.8-20.9c3.5-14.1,7.3-27.9,10-43
		c0.6-3.4,1.9-8,2.1-11c0.2-2.3,1.2-9.1,1.8-11.7c1.7-7.6,2.1-15.3,3.4-23.2c2.5-14.6,3.6-32.2,4.7-48.2c0.5-7.9,1.3-17.3,1.3-25.4
		c0-2.3,0.4-25.6,0.7-26v-19.3c-1.4-0.4-36.8-26.6-40.9-29.8c-3.3-2.5-6.9-5.2-10.2-7.5c-3.1-2.2-7.2-5.6-10.3-7.4
		c-1.8-1.1-8.2-5.9-10.1-7.5c-2.5-2.1-7.4-5.7-10.2-7.5c-8.5-5.6-80.2-59.5-81.5-59.5c-0.3,0-24.7,18.3-28.1,20.4
		c-2.3,1.4-5.1,3.3-7.4,4.8c-2.6,1.7-4.9,3.1-7.5,4.7c-2.2,1.5-5.3,3.1-7.9,4.3c-2.4,1.2-5.3,3.1-7.7,4.1
		c-5.7,2.4-10.9,5.3-16.9,7.5c-5.3,2-12.3,4.6-18.1,6c-10.1,2.4-29.8,7.1-42,5.6c-2.4-0.3-8.1,0.3-11.5-0.1
		c-3.6-0.4-7.3-0.7-10.8-1.4c-0.9-0.2-4.8-0.8-5.3-0.8c-2.6-0.2-3.2-0.7-5.1-1c-2.6-0.3-7.1-1.5-9.6-2.3
		c-12.8-3.6-23.8-8.1-34.8-13.6c-11.3-5.7-20.4-11.2-30.5-18c-4.9-3.3-9.1-6.7-13.9-10.2c-4.5-3.3-9.5-6.9-13.6-10.5h-0.6L8.4,170.1
		z"/>
	<path class="st1" d="M35.7,184.6v10.9c0,6.6,0.3,12.3,0.3,18.6c0,6.1,1,12.1,1,18.3c0,6.4,1.3,12.2,1.3,18c0,3.3,1,14.7,1.6,17.7
		c0.4,1.8,0.9,6.7,1,8.6c0.1,3.6,0.8,5.6,1,8.7c0.3,4.9,1.6,11.9,2.4,16.8c1,5.7,1.7,11.1,2.8,16.5c0.7,3.8,2.8,12.8,2.8,16.5
		l0.7,0.9c0,4.6,3.9,17.7,5,22.9c0.8,3.8,2,7.4,2.7,11.1c0.6,3,2.9,8.3,2.8,11.3l0.7,0.9c0,4.6,15.4,48.1,17.9,53.4
		c1.6,3.3,3.9,9.1,5.1,12.6c1.5,4.5,3.6,8.3,5.4,12.5c3.7,8.4,7.4,16.5,11.6,24.3c8.4,15.8,16.3,30.8,25.8,45.4
		c9.7,14.9,19.1,27.9,29.6,42c10.2,13.8,21.6,25.8,32.9,38.4c5.6,6.3,11.5,12.2,17.5,18.1c2.9,2.9,6.1,6,9.2,8.8
		c2.6,2.4,6.8,6.7,9.4,8.6c2,1.4,7.5,6.4,9.4,8.3c2.4,2.4,6.9,6.2,9.7,8.3c6.8,5.1,13.1,10.7,20,15.9c13.8,10.5,27.3,20,41.8,29.8
		c30.9-20.7,56.4-40.7,83.7-64.9c6.5-5.8,12.6-12,18.8-18.1c3.2-3.2,6.2-6.1,9.3-9.3c2.5-2.5,6.9-7.1,9-9.7
		c5.3-6.8,11.9-13,17.3-19.9c5.2-6.6,11.8-13.9,16.4-20.8c4.9-7.3,10.4-14,15.4-21.5c5.1-7.6,9.7-14.8,14.6-22.7
		c4.3-6.9,10.2-16.3,13.6-23.6c1.6-3.5,4.6-8.4,6.5-12.1c2.1-3.9,4.4-8.5,6.1-12.5c1.9-4.4,4.1-8.4,6-12.7c1.8-4.2,3.5-8.8,5.5-13.1
		c3.6-7.6,8-18.5,10.5-26.8c2.8-9.3,6.4-18.2,9.3-28c1.3-4.3,2.8-10.1,4.3-14.3c0.7-1.8,3.8-13.3,3.7-14.9l0.5-1l2.6-10.6l3.3-16.7
		l0.7-0.9c0-2.1,1-6.6,1.5-8.8c0.7-3.3,1-5.2,1.5-8.8c0.8-5.3,2.3-12,3.1-17.5c0.9-5.8,1.9-12.6,2.3-18.2c0.1-1.6,0.7-7.2,1.1-9.2
		c0.6-3.1,0.4-6.5,1-9.6c1-5.9,0.6-13.1,1.6-18.9c0.7-3.7,1.2-15.5,1.2-19.4c0-6.1,0.6-12.8,0.6-19.9c0-6.5,0.3-13.6,0.3-20.5
		c-4-2.1-12.8-9.2-16.9-12.3c-5.3-4-11.4-8.7-16.8-12.4c-5.4-3.6-11.6-8.3-16.9-12.3c-5.7-4.3-11.4-8.2-17-12.5
		c-5.6-4.3-67.8-49.7-67.8-49.7c-0.5,0-12,8.4-13.6,9.5c-4.8,3.2-9.2,6-14.1,9c-4.9,3-9.7,5.5-14.8,8.3c-5.3,2.9-10.6,4.8-16,7.5
		c-5.6,2.8-10.8,4-16.7,6.4c-5.9,2.3-11.6,3.4-17.8,5.3c-5.9,1.8-12.8,2.4-19.5,3.6c-6.8,1.2-14.2,1.5-22,1.5h-4.8
		c-15.1,0-28.1-2.2-40.4-5.2c-11.2-2.8-24.8-6.9-34.3-11.7c-2.7-1.3-5-2.1-7.7-3.5c-2.6-1.4-5.1-2.5-7.8-3.8
		c-5.1-2.6-9.8-5.4-14.5-8.2c-4.8-2.8-9.3-5.8-13.9-8.9c-1.4-1-13.3-9.7-13.4-9.7c-0.6,0-62.3,45.2-68.2,49.7
		C97,139.3,35.7,183.3,35.7,184.6z"/>
	<path class="st2" d="M183.9,356.7h-35.2v-16.3l-4-4.1H126l-4.1,4.1v62.2l4.1,4h18.7l4-4v-15.4h35.2v27.8l-20.4,20.4h-56.4
		l-20.4-20.4V328l20.4-20.6h56.4l20.4,20.6L183.9,356.7L183.9,356.7z M291.5,307.4v28.9h-6.5l28.1,70.3h7.7v28.9h-49.1v-28.9h4.1
		l-1.8-5.7h-33.9l-2,5.7h4.1v28.9h-49v-28.9h7.7l28.1-70.3h-5.5v-28.9H291.5L291.5,307.4z M248.9,376.4h16.3l-8.1-20.3L248.9,376.4
		L248.9,376.4z M427,377.6v37.5l-20.4,20.4h-79.2v-28.9h7.7v-70.3h-7.7v-28.9h79.2L427,328v32.7l-8.4,8.4L427,377.6L427,377.6z
		 M391.8,387.7l-4.1-4h-17.5v22.9h17.5l4.1-4V387.7L391.8,387.7z M391.8,340.4l-4.1-4.1h-17.5v18.6h17.5l4.1-4.1V340.4L391.8,340.4z
		 M523.1,336.1v78.8l-20.4,20.6h-46.8l-20.4-20.4v-31h35.2v18.4l4.1,4.1h9.1l4.1-4v-66.5H477v-28.7h53.7v28.7L523.1,336.1
		L523.1,336.1z"/>
	<polygon class="st2" points="141.4,145.6 147.7,163.6 166.7,164.1 151.7,175.6 157.1,193.8 141.4,183.1 125.7,193.8 131.2,175.6 
		116.1,164.1 135.1,163.6 	"/>
	<polygon class="st2" points="225.3,146.6 231.6,164.6 250.6,165 235.5,176.6 240.9,194.8 225.3,184.1 209.6,194.8 215,176.6 
		199.9,165 218.9,164.6 	"/>
	<polygon class="st2" points="307.1,147.6 313.4,165.5 332.4,166 317.3,177.6 322.7,195.8 307.1,185 291.4,195.8 296.8,177.6 
		281.7,166 300.7,165.5 	"/>
	<polygon class="st2" points="391.1,147.6 397.4,165.5 416.4,166 401.3,177.6 406.7,195.8 391.1,185 375.4,195.8 380.8,177.6 
		365.7,166 384.7,165.5 	"/>
	<polygon class="st2" points="474.3,147.6 480.6,165.5 499.6,166 484.5,177.6 490,195.8 474.3,185 458.6,195.8 464,177.6 449,166 
		468,165.5 	"/>
	<polygon class="st2" points="101.8,197 108.2,215 127.2,215.5 112.1,227 117.5,245.2 101.8,234.5 86.2,245.2 91.6,227 76.5,215.5 
		95.5,215 	"/>
	<polygon class="st2" points="185.1,197 191.4,215 210.4,215.5 195.3,227 200.7,245.2 185.1,234.5 169.4,245.2 174.8,227 
		159.7,215.5 178.7,215 	"/>
	<polygon class="st2" points="185.1,251.3 191.4,269.2 210.4,269.7 195.3,281.3 200.7,299.5 185.1,288.7 169.4,299.5 174.8,281.3 
		159.7,269.7 178.7,269.2 	"/>
	<polygon class="st2" points="268.3,197 274.6,215 293.6,215.5 278.5,227 283.9,245.2 268.3,234.5 252.6,245.2 258,227 242.9,215.5 
		261.9,215 	"/>
	<polygon class="st2" points="268.3,251.3 274.6,269.2 293.6,269.7 278.5,281.3 283.9,299.5 268.3,288.7 252.6,299.5 258,281.3 
		242.9,269.7 261.9,269.2 	"/>
	<polygon class="st2" points="351.5,197 357.8,215 376.8,215.5 361.7,227 367.2,245.2 351.5,234.5 335.8,245.2 341.2,227 
		326.2,215.5 345.2,215 	"/>
	<polygon class="st2" points="351.5,251.3 357.8,269.2 376.8,269.7 361.7,281.3 367.2,299.5 351.5,288.7 335.8,299.5 341.2,281.3 
		326.2,269.7 345.2,269.2 	"/>
	<polygon class="st2" points="433.8,197 440.1,215 459.2,215.5 444.1,227 449.5,245.2 433.8,234.5 418.1,245.2 423.6,227 
		408.5,215.5 427.5,215 	"/>
	<polygon class="st2" points="433.8,251.3 440.1,269.2 459.2,269.7 444.1,281.3 449.5,299.5 433.8,288.7 418.1,299.5 423.6,281.3 
		408.5,269.7 427.5,269.2 	"/>
	<polygon class="st2" points="517,197 523.4,215 542.4,215.5 527.3,227 532.7,245.2 517,234.5 501.4,245.2 506.8,227 491.7,215.5 
		510.7,215 	"/>
	<polygon class="st2" points="517,251.3 523.4,269.2 542.4,269.7 527.3,281.3 532.7,299.5 517,288.7 501.4,299.5 506.8,281.3 
		491.7,269.7 510.7,269.2 	"/>
	<polygon class="st2" points="101.8,251.3 108.2,269.2 127.2,269.7 112.1,281.3 117.5,299.5 101.8,288.7 86.2,299.5 91.6,281.3 
		76.5,269.7 95.5,269.2 	"/>
	<polygon class="st2" points="142.2,448.6 148.6,466.5 167.6,467 152.5,478.6 157.9,496.8 142.2,486 126.6,496.8 132,478.6 
		116.9,467 135.9,466.5 	"/>
	<polygon class="st2" points="225,448.6 231.3,466.5 250.3,467 235.2,478.6 240.6,496.8 225,486 209.3,496.8 214.7,478.6 199.6,467 
		218.7,466.5 	"/>
	<polygon class="st2" points="307.3,448.6 313.6,466.5 332.6,467 317.6,478.6 323,496.8 307.3,486 291.6,496.8 297.1,478.6 282,467 
		301,466.5 	"/>
	<polygon class="st2" points="391.4,448.6 397.8,466.5 416.8,467 401.7,478.6 407.1,496.8 391.4,486 375.8,496.8 381.2,478.6 
		366.1,467 385.1,466.5 	"/>
	<polygon class="st2" points="474.6,448.6 481,466.5 500,467 484.9,478.6 490.3,496.8 474.6,486 459,496.8 464.4,478.6 449.3,467 
		468.3,466.5 	"/>
	<polygon class="st2" points="433,495.6 439.4,513.6 458.4,514 443.3,525.6 448.7,543.8 433,533.1 417.4,543.8 422.8,525.6 
		407.7,514 426.7,513.6 	"/>
	<polygon class="st2" points="349.8,495.6 356.2,513.6 375.2,514 360.1,525.6 365.5,543.8 349.8,533.1 334.2,543.8 339.6,525.6 
		324.5,514 343.5,513.6 	"/>
	<polygon class="st2" points="266.6,495.6 272.9,513.6 291.9,514 276.8,525.6 282.3,543.8 266.6,533.1 250.9,543.8 256.3,525.6 
		241.3,514 260.3,513.6 	"/>
	<polygon class="st2" points="183.4,495.6 189.7,513.6 208.7,514 193.6,525.6 199,543.8 183.4,533.1 167.7,543.8 173.1,525.6 
		158,514 177,513.6 	"/>
	<polygon class="st2" points="225,542.7 231.3,560.6 250.3,561.1 235.2,572.6 240.6,590.9 225,580.1 209.3,590.9 214.7,572.6 
		199.6,561.1 218.7,560.6 	"/>
	<polygon class="st2" points="306.8,542.7 313.2,560.6 332.2,561.1 317.1,572.6 322.5,590.9 306.8,580.1 291.2,590.9 296.6,572.6 
		281.5,561.1 300.5,560.6 	"/>
	<polygon class="st2" points="391.9,542.7 398.2,560.6 417.2,561.1 402.1,572.6 407.5,590.9 391.9,580.1 376.2,590.9 381.6,572.6 
		366.5,561.1 385.5,560.6 	"/>
	<polygon class="st2" points="349.4,588.4 355.7,606.3 374.7,606.8 359.6,618.3 365,636.6 349.4,625.8 333.7,636.6 339.1,618.3 
		324,606.8 343,606.3 	"/>
	<polygon class="st2" points="267,588.4 273.4,606.3 292.4,606.8 277.3,618.3 282.7,636.6 267,625.8 251.4,636.6 256.8,618.3 
		241.7,606.8 260.7,606.3 	"/>
	<polygon class="st2" points="306.8,634.5 313.2,652.4 332.2,652.9 317.1,664.5 322.5,682.7 306.8,671.9 291.2,682.7 296.6,664.5 
		281.5,652.9 300.5,652.4 	"/>
</g>
</svg>
